<?xml version="1.0" encoding="UTF-8" standalone="no"?>
<!DOCTYPE svg PUBLIC "-//W3C//DTD SVG 1.1//EN" "http://www.w3.org/Graphics/SVG/1.1/DTD/svg11.dtd">
<svg width="100%" height="100%" viewBox="0 0 329 418" version="1.1" xmlns="http://www.w3.org/2000/svg" xmlns:xlink="http://www.w3.org/1999/xlink" xml:space="preserve" style="fill-rule:evenodd;clip-rule:evenodd;stroke-linejoin:round;stroke-miterlimit:1.41421;">
    <g id="Artboard1" transform="matrix(1,0,0,1,-148.997,-69.361)">
        <rect x="148.997" y="69.361" width="328.971" height="417.727" style="fill:none;"/>
        <clipPath id="_clip1">
            <rect x="148.997" y="69.361" width="328.971" height="417.727"/>
        </clipPath>
        <g clip-path="url(#_clip1)">
            <g transform="matrix(1,0,0,1,-6.21152,-7.25237)">
                <g transform="matrix(1,0,0,1.11676,0,-20.7137)">
                    <rect x="168.584" y="110.04" width="259.847" height="286.915" style="fill:rgb(255,119,0);"/>
                </g>
                <g transform="matrix(0.93158,0,0,1.13435,12.458,-20.9866)">
                    <g>
                        <path d="M206.235,194.84L210.946,194.84C213.712,194.84 215.657,195.215 216.782,195.965C217.907,196.715 218.469,197.957 218.469,199.691C218.469,201.566 217.977,202.879 216.993,203.629C216.008,204.379 214.133,204.754 211.368,204.754L187.321,204.754C185.727,204.754 184.52,204.32 183.7,203.453C182.88,202.586 182.469,201.332 182.469,199.691C182.469,197.957 182.926,196.715 183.841,195.965C184.755,195.215 186.313,194.84 188.516,194.84L195.266,194.84L195.266,131.488L190.766,131.488C187.204,131.488 184.93,131.125 183.946,130.399C182.962,129.672 182.469,128.348 182.469,126.426C182.469,124.785 182.88,123.531 183.7,122.664C184.52,121.797 185.727,121.363 187.321,121.363L211.368,121.363C214.133,121.363 216.008,121.738 216.993,122.488C217.977,123.238 218.469,124.551 218.469,126.426C218.469,128.301 217.837,129.613 216.571,130.363C215.305,131.113 212.915,131.488 209.399,131.488L206.235,131.488L206.235,160.106L235.555,131.488L234.712,131.488L233.165,131.488C230.868,131.488 229.204,131.09 228.173,130.293C227.141,129.496 226.626,128.207 226.626,126.426C226.626,124.598 227.024,123.297 227.821,122.524C228.618,121.75 229.907,121.363 231.688,121.363L252.43,121.363C254.024,121.363 255.243,121.797 256.087,122.664C256.93,123.531 257.352,124.785 257.352,126.426C257.352,128.254 256.801,129.555 255.7,130.328C254.598,131.102 252.641,131.488 249.829,131.488L248.844,131.488L221.633,157.785C225.712,158.629 229.649,161.254 233.446,165.66C237.243,170.066 243.149,179.793 251.165,194.84L252.43,194.84C255.337,194.84 257.282,195.191 258.266,195.895C259.251,196.598 259.743,197.863 259.743,199.691C259.743,201.332 259.333,202.586 258.512,203.453C257.692,204.32 256.485,204.754 254.891,204.754L248.141,204.754C246.641,204.754 245.551,204.59 244.872,204.262C244.192,203.934 243.501,203.184 242.798,202.012C242.376,201.356 239.774,196.598 234.993,187.738L232.251,182.606C229.298,177.121 226.344,173.008 223.391,170.266C220.438,167.524 217.298,165.918 213.969,165.449L206.235,172.762L206.235,194.84Z" style="fill:rgb(248,246,244);fill-rule:nonzero;"/>
                        <path d="M328.368,194.84C331.977,194.84 334.286,195.18 335.294,195.859C336.301,196.539 336.805,197.816 336.805,199.691C336.805,201.613 336.301,202.938 335.294,203.664C334.286,204.391 331.977,204.754 328.368,204.754L285.688,204.754L282.383,204.754C280.696,204.754 279.407,204.332 278.516,203.488C277.626,202.645 277.18,201.379 277.18,199.691C277.18,197.816 277.696,196.539 278.727,195.859C279.758,195.18 282.079,194.84 285.688,194.84L301.579,194.84L301.579,131.488L285.688,131.488C282.173,131.488 279.876,131.125 278.798,130.399C277.719,129.672 277.18,128.348 277.18,126.426C277.18,124.691 277.626,123.414 278.516,122.594C279.407,121.774 280.743,121.363 282.524,121.363L331.673,121.363C333.36,121.363 334.637,121.785 335.505,122.629C336.372,123.473 336.805,124.738 336.805,126.426C336.805,128.348 336.278,129.672 335.223,130.399C334.169,131.125 331.883,131.488 328.368,131.488L312.477,131.488L312.477,194.84L328.368,194.84Z" style="fill:rgb(248,246,244);fill-rule:nonzero;"/>
                        <path d="M367.11,149.77C367.016,153.285 366.606,155.524 365.88,156.484C365.153,157.445 363.735,157.926 361.626,157.926C359.985,157.926 358.755,157.492 357.934,156.625C357.114,155.758 356.704,154.481 356.704,152.793C356.704,152.793 356.727,152.43 356.774,151.703C356.821,150.977 356.844,150.238 356.844,149.488L357.548,126.285C357.641,124.551 358.11,123.297 358.954,122.524C359.798,121.75 361.11,121.363 362.891,121.363L423.993,121.363C425.774,121.363 427.087,121.75 427.93,122.524C428.774,123.297 429.219,124.551 429.266,126.285L430.04,149.488C430.04,150.332 430.063,151.129 430.11,151.879C430.157,152.629 430.18,152.981 430.18,152.934C430.18,154.621 429.735,155.875 428.844,156.695C427.954,157.516 426.618,157.926 424.837,157.926C422.962,157.926 421.673,157.445 420.969,156.484C420.266,155.524 419.868,153.285 419.774,149.77L419.071,131.488L398.891,131.488L398.891,194.84L412.462,194.84C414.43,194.84 415.86,195.227 416.751,196C417.641,196.774 418.087,198.004 418.087,199.691C418.087,201.332 417.665,202.586 416.821,203.453C415.977,204.32 414.758,204.754 413.165,204.754L373.719,204.754C372.126,204.754 370.907,204.32 370.063,203.453C369.219,202.586 368.798,201.332 368.798,199.691C368.798,197.957 369.255,196.715 370.169,195.965C371.083,195.215 372.641,194.84 374.844,194.84L387.993,194.84L387.993,131.488L367.813,131.488L367.11,149.77Z" style="fill:rgb(248,246,244);fill-rule:nonzero;"/>
                    </g>
                    <g transform="matrix(1,0,0,1,-51.6888,-15.1396)">
                        <path d="M246.357,319.594C246.123,321.703 245.584,323.168 244.74,323.988C243.896,324.808 242.561,325.219 240.732,325.219C238.764,325.219 237.299,324.644 236.338,323.496C235.377,322.347 234.826,320.484 234.686,317.906L233.771,301.594L233.771,300.328C233.771,298.078 234.205,296.484 235.072,295.547C235.939,294.609 237.381,294.14 239.396,294.14C242.209,294.14 244.225,296.156 245.443,300.187C246.006,302.203 246.545,303.726 247.061,304.758C248.701,308.039 251.291,310.57 254.83,312.351C258.369,314.133 262.6,315.023 267.521,315.023C273.568,315.023 278.478,313.594 282.252,310.734C286.025,307.875 287.912,304.219 287.912,299.765C287.912,296.062 286.752,293.086 284.432,290.836C282.111,288.586 278.725,287.133 274.271,286.476L263.865,285.07C254.162,283.711 247.084,281.156 242.631,277.406C238.178,273.656 235.951,268.383 235.951,261.586C235.951,254.414 238.916,248.39 244.846,243.515C250.775,238.64 258.17,236.203 267.029,236.203C269.607,236.203 272.326,236.543 275.186,237.222C278.045,237.902 281.279,238.969 284.889,240.422C284.982,239.062 285.357,238.125 286.014,237.609C286.67,237.094 287.795,236.836 289.389,236.836C291.451,236.836 292.881,237.14 293.678,237.75C294.475,238.359 294.967,239.812 295.154,242.109L296.139,256.805L296.139,257.508C296.139,259.148 295.67,260.426 294.732,261.34C293.795,262.254 292.482,262.711 290.795,262.711C288.311,262.711 286.389,260.976 285.029,257.508C284.373,255.539 283.717,254.062 283.061,253.078C281.514,250.734 279.287,248.93 276.381,247.664C273.475,246.398 270.17,245.765 266.467,245.765C260.795,245.765 256.189,247.172 252.65,249.984C249.111,252.797 247.342,256.476 247.342,261.023C247.342,264.586 248.666,267.398 251.314,269.461C253.963,271.523 258.006,272.93 263.443,273.68L274.693,275.086C282.85,276.164 288.99,278.66 293.115,282.574C297.24,286.488 299.303,291.773 299.303,298.43C299.303,306.305 296.373,312.621 290.514,317.379C284.654,322.137 276.826,324.515 267.029,324.515C263.654,324.515 260.303,324.117 256.975,323.32C253.646,322.523 250.107,321.281 246.357,319.594Z" style="fill:rgb(248,246,244);fill-rule:nonzero;"/>
                        <path d="M391.342,280.289C391.342,293.133 387.779,303.668 380.654,311.894C373.529,320.121 364.412,324.234 353.303,324.234C342.287,324.234 333.205,320.109 326.057,311.859C318.908,303.609 315.334,293.086 315.334,280.289C315.334,267.351 318.873,256.793 325.951,248.613C333.029,240.433 342.146,236.344 353.303,236.344C364.412,236.344 373.529,240.469 380.654,248.719C387.779,256.969 391.342,267.492 391.342,280.289ZM353.303,314.25C361.178,314.25 367.377,311.238 371.9,305.215C376.424,299.191 378.686,290.883 378.686,280.289C378.686,269.695 376.424,261.387 371.9,255.363C367.377,249.34 361.178,246.328 353.303,246.328C345.381,246.328 339.182,249.316 334.705,255.293C330.228,261.269 327.99,269.601 327.99,280.289C327.99,290.883 330.252,299.191 334.775,305.215C339.299,311.238 345.475,314.25 353.303,314.25Z" style="fill:rgb(248,246,244);fill-rule:nonzero;"/>
                        <path d="M420.592,312.14L429.381,312.14C431.912,312.14 433.717,312.515 434.795,313.265C435.873,314.015 436.412,315.258 436.412,316.992C436.412,318.914 435.908,320.238 434.9,320.965C433.893,321.691 431.678,322.055 428.256,322.055L410.678,322.055L407.373,322.055C405.686,322.055 404.42,321.633 403.576,320.789C402.732,319.945 402.311,318.68 402.311,316.992C402.311,315.117 402.791,313.84 403.752,313.16C404.713,312.48 406.576,312.14 409.342,312.14L410.678,312.14L410.678,248.789L408.92,248.789C404.982,248.789 402.322,248.414 400.939,247.664C399.557,246.914 398.865,245.601 398.865,243.726C398.865,241.992 399.463,240.738 400.658,239.965C401.853,239.191 403.787,238.805 406.459,238.805C406.459,238.805 406.928,238.781 407.865,238.734C408.803,238.687 409.74,238.664 410.678,238.664L417.287,238.664C419.443,238.664 420.955,238.91 421.822,239.402C422.689,239.894 423.709,241.148 424.881,243.164L460.318,304.336L460.318,248.789L457.576,248.789L452.584,248.789C450.053,248.789 448.213,248.379 447.064,247.558C445.916,246.738 445.342,245.461 445.342,243.726C445.342,241.805 445.834,240.48 446.818,239.754C447.803,239.027 449.865,238.664 453.006,238.664L473.186,238.664C474.873,238.664 476.127,239.086 476.947,239.93C477.768,240.773 478.178,242.039 478.178,243.726C478.178,245.601 477.674,246.914 476.666,247.664C475.658,248.414 473.818,248.789 471.146,248.789L470.303,248.789L470.303,319.594C470.303,320.953 469.986,321.89 469.353,322.406C468.721,322.922 467.256,323.18 464.959,323.18C462.662,323.18 461.244,323.051 460.705,322.793C460.166,322.535 459.264,321.328 457.998,319.172L420.592,254.695L420.592,312.14Z" style="fill:rgb(248,246,244);fill-rule:nonzero;"/>
                    </g>
                    <g transform="matrix(1.06359,0,0,1,-32.3978,-65.0399)">
                        <path d="M222.502,389.858C222.658,389.436 222.877,389.139 223.158,388.968C223.439,388.796 223.845,388.71 224.377,388.71C224.955,388.71 225.361,388.85 225.595,389.132C225.83,389.413 225.947,389.991 225.947,390.866C225.947,392.397 225.963,393.823 225.994,395.143C226.025,396.464 226.041,397.038 226.041,396.866C226.041,397.6 225.916,398.096 225.666,398.354C225.416,398.612 224.97,398.741 224.33,398.741C223.299,398.741 222.627,398.007 222.314,396.538C222.205,396.1 222.119,395.764 222.056,395.53C221.759,394.358 221.049,393.401 219.924,392.659C218.799,391.917 217.478,391.546 215.963,391.546C213.197,391.546 210.978,392.557 209.306,394.581C207.634,396.604 206.799,399.319 206.799,402.725C206.799,406.132 207.646,408.846 209.342,410.87C211.037,412.893 213.275,413.905 216.056,413.905C216.963,413.905 217.884,413.776 218.822,413.518C219.759,413.261 220.681,412.874 221.588,412.358C222.009,412.139 222.588,411.768 223.322,411.245C224.056,410.721 224.58,410.46 224.892,410.46C225.377,410.46 225.787,410.62 226.123,410.94C226.459,411.261 226.627,411.655 226.627,412.124C226.627,412.593 226.443,413.042 226.076,413.471C225.709,413.901 225.025,414.429 224.025,415.054C222.713,415.913 221.392,416.546 220.064,416.952C218.736,417.358 217.338,417.561 215.869,417.561C212.009,417.561 208.822,416.198 206.306,413.471C203.791,410.745 202.533,407.257 202.533,403.007C202.533,398.804 203.806,395.311 206.353,392.53C208.9,389.749 212.103,388.358 215.963,388.358C216.994,388.358 218.045,388.483 219.115,388.733C220.185,388.983 221.314,389.358 222.502,389.858Z" style="fill:rgb(248,246,244);fill-rule:nonzero;"/>
                        <path d="M249.103,406.522C248.244,406.241 247.412,406.034 246.607,405.901C245.802,405.768 245.002,405.702 244.205,405.702C241.799,405.702 239.9,406.108 238.509,406.921C237.119,407.733 236.424,408.827 236.424,410.202C236.424,411.264 236.857,412.139 237.724,412.827C238.592,413.514 239.697,413.858 241.041,413.858C243.025,413.858 244.865,413.339 246.56,412.3C248.256,411.261 249.103,410.179 249.103,409.054L249.103,406.522ZM249.291,413.905C248.009,415.061 246.615,415.944 245.107,416.554C243.599,417.163 242.049,417.468 240.455,417.468C238.127,417.468 236.248,416.819 234.818,415.522C233.388,414.225 232.674,412.538 232.674,410.46C232.674,407.991 233.623,406.077 235.521,404.718C237.42,403.358 240.088,402.679 243.525,402.679C244.431,402.679 245.345,402.737 246.267,402.854C247.189,402.971 248.134,403.155 249.103,403.405L249.103,403.241C249.103,401.444 248.674,400.116 247.814,399.257C246.955,398.397 245.619,397.968 243.806,397.968C242.588,397.968 241.228,398.296 239.728,398.952C238.228,399.608 237.236,399.936 236.752,399.936C236.299,399.936 235.924,399.753 235.627,399.386C235.33,399.018 235.181,398.546 235.181,397.968C235.181,397.046 236.045,396.264 237.771,395.624C239.498,394.983 241.705,394.663 244.392,394.663C247.142,394.663 249.22,395.362 250.627,396.761C252.033,398.159 252.736,400.225 252.736,402.96L252.736,413.577L253.884,413.577C254.994,413.577 255.736,413.694 256.111,413.929C256.486,414.163 256.674,414.585 256.674,415.194C256.674,415.757 256.517,416.179 256.205,416.46C255.892,416.741 255.424,416.882 254.799,416.882L251.119,416.882C250.681,416.882 250.322,416.749 250.041,416.483C249.759,416.218 249.572,415.835 249.478,415.335L249.291,413.905Z" style="fill:rgb(248,246,244);fill-rule:nonzero;"/>
                        <path d="M273.97,413.624C276.174,413.624 277.963,412.929 279.338,411.538C280.713,410.147 281.4,408.343 281.4,406.124C281.4,403.952 280.701,402.163 279.302,400.757C277.904,399.35 276.127,398.647 273.97,398.647C271.799,398.647 270.021,399.346 268.638,400.745C267.256,402.143 266.564,403.936 266.564,406.124C266.564,408.311 267.256,410.108 268.638,411.514C270.021,412.921 271.799,413.624 273.97,413.624ZM266.658,398.6C267.533,397.507 268.627,396.671 269.939,396.093C271.252,395.514 272.736,395.225 274.392,395.225C277.533,395.225 280.15,396.284 282.244,398.401C284.338,400.518 285.384,403.139 285.384,406.264C285.384,409.343 284.31,411.952 282.162,414.093C280.013,416.233 277.392,417.304 274.299,417.304C272.658,417.304 271.228,417.014 270.009,416.436C268.791,415.858 267.791,414.983 267.009,413.811L267.009,415.686C267.009,416.108 266.935,416.413 266.787,416.6C266.638,416.788 266.392,416.882 266.049,416.882L261.759,416.882C261.15,416.882 260.697,416.741 260.4,416.46C260.103,416.179 259.955,415.757 259.955,415.194C259.955,414.569 260.134,414.143 260.494,413.917C260.853,413.69 261.564,413.577 262.627,413.577L263.119,413.577L263.119,389.577L262.674,389.577C261.611,389.577 260.884,389.452 260.494,389.202C260.103,388.952 259.908,388.514 259.908,387.889C259.908,387.327 260.064,386.905 260.377,386.624C260.689,386.343 261.15,386.202 261.759,386.202L265.322,386.202C265.791,386.202 266.131,386.28 266.342,386.436C266.552,386.593 266.658,386.835 266.658,387.163L266.658,398.6Z" style="fill:rgb(248,246,244);fill-rule:nonzero;"/>
                        <path d="M301.509,414.186C303.916,414.186 305.888,413.425 307.427,411.901C308.967,410.378 309.736,408.436 309.736,406.077C309.736,403.718 308.963,401.768 307.416,400.229C305.869,398.69 303.9,397.921 301.509,397.921C299.119,397.921 297.154,398.69 295.615,400.229C294.076,401.768 293.306,403.718 293.306,406.077C293.306,408.452 294.072,410.397 295.603,411.913C297.134,413.429 299.103,414.186 301.509,414.186ZM313.814,406.077C313.814,409.421 312.674,412.155 310.392,414.28C308.111,416.405 305.15,417.468 301.509,417.468C297.884,417.468 294.931,416.405 292.65,414.28C290.369,412.155 289.228,409.421 289.228,406.077C289.228,402.733 290.369,400.003 292.65,397.886C294.931,395.768 297.884,394.71 301.509,394.71C305.134,394.71 308.092,395.772 310.381,397.897C312.67,400.022 313.814,402.749 313.814,406.077Z" style="fill:rgb(248,246,244);fill-rule:nonzero;"/>
                        <path d="M330.314,414.186C332.72,414.186 334.693,413.425 336.232,411.901C337.771,410.378 338.541,408.436 338.541,406.077C338.541,403.718 337.767,401.768 336.22,400.229C334.674,398.69 332.705,397.921 330.314,397.921C327.924,397.921 325.959,398.69 324.42,400.229C322.881,401.768 322.111,403.718 322.111,406.077C322.111,408.452 322.877,410.397 324.408,411.913C325.939,413.429 327.908,414.186 330.314,414.186ZM342.619,406.077C342.619,409.421 341.478,412.155 339.197,414.28C336.916,416.405 333.955,417.468 330.314,417.468C326.689,417.468 323.736,416.405 321.455,414.28C319.174,412.155 318.033,409.421 318.033,406.077C318.033,402.733 319.174,400.003 321.455,397.886C323.736,395.768 326.689,394.71 330.314,394.71C333.939,394.71 336.896,395.772 339.185,397.897C341.474,400.022 342.619,402.749 342.619,406.077Z" style="fill:rgb(248,246,244);fill-rule:nonzero;"/>
                        <path d="M366.174,416.882C365.845,416.882 365.615,416.8 365.482,416.636C365.349,416.471 365.283,416.155 365.283,415.686L365.283,413.764C364.345,414.936 363.174,415.846 361.767,416.495C360.361,417.143 358.838,417.468 357.197,417.468C354.244,417.468 351.771,416.417 349.779,414.315C347.787,412.214 346.791,409.6 346.791,406.475C346.791,403.241 347.853,400.55 349.978,398.401C352.103,396.253 354.752,395.179 357.924,395.179C359.533,395.179 360.978,395.464 362.259,396.034C363.541,396.604 364.642,397.444 365.564,398.554L365.564,389.577L364.322,389.577C362.963,389.577 362.084,389.456 361.685,389.214C361.287,388.971 361.088,388.53 361.088,387.889C361.088,387.327 361.248,386.905 361.568,386.624C361.888,386.343 362.353,386.202 362.963,386.202L367.767,386.202C368.236,386.202 368.576,386.28 368.787,386.436C368.998,386.593 369.103,386.835 369.103,387.163L369.103,413.577L370.158,413.577C370.924,413.577 371.478,413.706 371.822,413.964C372.166,414.221 372.338,414.632 372.338,415.194C372.338,415.725 372.189,416.139 371.892,416.436C371.595,416.733 371.197,416.882 370.697,416.882L366.174,416.882ZM350.822,406.358C350.822,408.514 351.517,410.28 352.908,411.655C354.299,413.03 356.064,413.718 358.205,413.718C360.361,413.718 362.134,413.003 363.525,411.573C364.916,410.143 365.611,408.327 365.611,406.124C365.611,403.952 364.92,402.163 363.537,400.757C362.154,399.35 360.377,398.647 358.205,398.647C356.002,398.647 354.22,399.358 352.861,400.78C351.502,402.202 350.822,404.061 350.822,406.358Z" style="fill:rgb(248,246,244);fill-rule:nonzero;"/>
                        <path d="M386.353,389.577L382.369,389.577C380.853,389.577 379.904,389.456 379.521,389.214C379.138,388.971 378.947,388.53 378.947,387.889C378.947,387.327 379.107,386.905 379.427,386.624C379.748,386.343 380.213,386.202 380.822,386.202L388.556,386.202C388.978,386.202 389.306,386.288 389.541,386.46C389.775,386.632 389.892,386.866 389.892,387.163L389.892,413.577L397.252,413.577C397.845,413.577 398.279,413.706 398.552,413.964C398.826,414.221 398.963,414.632 398.963,415.194C398.963,415.835 398.83,416.276 398.564,416.518C398.299,416.761 397.799,416.882 397.064,416.882L379.767,416.882C379.158,416.882 378.693,416.741 378.373,416.46C378.052,416.179 377.892,415.757 377.892,415.194C377.892,414.647 378.056,414.241 378.384,413.975C378.713,413.71 379.205,413.577 379.861,413.577L386.353,413.577L386.353,389.577Z" style="fill:rgb(248,246,244);fill-rule:nonzero;"/>
                        <path d="M408.806,407.085C408.931,409.335 409.693,411.073 411.092,412.3C412.49,413.526 414.4,414.139 416.822,414.139C418.65,414.139 420.642,413.651 422.799,412.675C424.955,411.698 426.259,411.21 426.713,411.21C427.181,411.21 427.572,411.358 427.884,411.655C428.197,411.952 428.353,412.319 428.353,412.757C428.353,413.21 428.189,413.624 427.861,413.999C427.533,414.374 427.009,414.741 426.291,415.1C424.728,415.866 423.115,416.452 421.451,416.858C419.787,417.264 418.134,417.468 416.494,417.468C412.931,417.468 410.08,416.44 407.939,414.386C405.799,412.331 404.728,409.608 404.728,406.218C404.728,402.764 405.861,399.968 408.127,397.827C410.392,395.686 413.345,394.616 416.986,394.616C420.283,394.616 423.017,395.616 425.189,397.616C427.361,399.616 428.447,402.038 428.447,404.882C428.447,405.757 428.263,406.343 427.896,406.639C427.529,406.936 426.533,407.085 424.908,407.085L424.556,407.085L408.806,407.085ZM408.924,404.014L424.181,404.014C423.947,402.155 423.17,400.659 421.849,399.526C420.529,398.393 418.908,397.827 416.986,397.827C414.908,397.827 413.158,398.374 411.736,399.468C410.314,400.561 409.377,402.077 408.924,404.014Z" style="fill:rgb(248,246,244);fill-rule:nonzero;"/>
                    </g>
                </g>
            </g>
            <g transform="matrix(0.39164,-0.920119,0.920119,0.39164,-198.935,783.018)">
                <g transform="matrix(0.99953,-0.0306447,0.0306447,0.99953,-7.2682,13.8787)">
                    <text x="449.148px" y="244.06px" style="font-family:'IndieFlower', 'Indie Flower';font-size:36px;fill:none;">H</text>
                </g>
                <g transform="matrix(0.987917,0.154985,-0.154985,0.987917,43.4123,-69.5999)">
                    <text x="468.067px" y="243.614px" style="font-family:'IndieFlower', 'Indie Flower';font-size:36px;fill:none;">a</text>
                </g>
                <g transform="matrix(0.950916,0.309449,-0.309449,0.950916,100.138,-138.311)">
                    <text x="486.059px" y="246.502px" style="font-family:'IndieFlower', 'Indie Flower';font-size:36px;fill:none;">n</text>
                </g>
                <g transform="matrix(0.883648,0.468151,-0.468151,0.883648,176.144,-205.713)">
                    <text x="501.925px" y="251.51px" style="font-family:'IndieFlower', 'Indie Flower';font-size:36px;fill:none;">d</text>
                </g>
                <g transform="matrix(0.755716,0.654899,-0.654899,0.755716,297.26,-276.034)">
                    <text x="518.639px" y="260.444px" style="font-family:'IndieFlower', 'Indie Flower';font-size:36px;fill:none;">c</text>
                </g>
                <g transform="matrix(0.55191,0.833904,-0.833904,0.55191,463.963,-321.13)">
                    <text x="530.796px" y="271.157px" style="font-family:'IndieFlower', 'Indie Flower';font-size:36px;fill:none;">r</text>
                </g>
                <g transform="matrix(0.197417,0.98032,-0.98032,0.197417,708.033,-301.855)">
                    <text x="538.368px" y="281.488px" style="font-family:'IndieFlower', 'Indie Flower';font-size:36px;fill:none;">a</text>
                </g>
                <g transform="matrix(-0.256912,0.966435,-0.966435,-0.256912,970.265,-146.716)">
                    <text x="541.537px" y="299.658px" style="font-family:'IndieFlower', 'Indie Flower';font-size:36px;fill:none;">f</text>
                </g>
                <g transform="matrix(-0.347828,0.937558,-0.937558,-0.347828,1018.16,-82.8623)">
                    <text x="537.9px" y="312.688px" style="font-family:'IndieFlower', 'Indie Flower';font-size:36px;fill:none;">t</text>
                </g>
                <g transform="matrix(-0.375433,0.926849,-0.926849,-0.375433,1034.28,-49.3769)">
                    <text x="533.778px" y="323.792px" style="font-family:'IndieFlower', 'Indie Flower';font-size:36px;fill:none;">e</text>
                </g>
                <g transform="matrix(-0.370264,0.928926,-0.928926,-0.370264,1038.53,-22.0709)">
                    <text x="526.748px" y="340.985px" style="font-family:'IndieFlower', 'Indie Flower';font-size:36px;fill:none;">d</text>
                </g>
                <g transform="matrix(-0.200208,0.979753,-0.979753,-0.200208,981.233,-58.8047)">
                    <text x="514.618px" y="371.097px" style="font-family:'IndieFlower', 'Indie Flower';font-size:36px;fill:none;">W</text>
                </g>
                <g transform="matrix(0.23364,0.972323,-0.972323,0.23364,776.21,-192.442)">
                    <text x="510.186px" y="396.189px" style="font-family:'IndieFlower', 'Indie Flower';font-size:36px;fill:none;">e</text>
                </g>
                <g transform="matrix(0.513362,0.858172,-0.858172,0.513362,606.034,-240.193)">
                    <text x="514.804px" y="414.266px" style="font-family:'IndieFlower', 'Indie Flower';font-size:36px;fill:none;">b</text>
                </g>
                <g transform="matrix(0.787115,0.616806,-0.616806,0.787115,384.762,-235.179)">
                    <text x="533.081px" y="439.809px" style="font-family:'IndieFlower', 'Indie Flower';font-size:36px;fill:none;">S</text>
                </g>
                <g transform="matrix(0.887008,0.461754,-0.461754,0.887008,271.717,-203.203)">
                    <text x="551.064px" y="453.6px" style="font-family:'IndieFlower', 'Indie Flower';font-size:36px;fill:none;">o</text>
                </g>
                <g transform="matrix(0.937662,0.347548,-0.347548,0.937662,195.664,-168.217)">
                    <text x="566.756px" y="461.328px" style="font-family:'IndieFlower', 'Indie Flower';font-size:36px;fill:none;">l</text>
                </g>
                <g transform="matrix(0.994516,0.104587,-0.104587,0.994516,51.6521,-57.1407)">
                    <text x="570.676px" y="463.944px" style="font-family:'IndieFlower', 'Indie Flower';font-size:36px;fill:none;">u</text>
                </g>
                <g transform="matrix(0.980157,-0.198225,0.198225,0.980157,-80.5144,125.924)">
                    <text x="588.697px" y="465.109px" style="font-family:'IndieFlower', 'Indie Flower';font-size:36px;fill:none;">t</text>
                </g>
                <g transform="matrix(0.950627,-0.310336,0.310336,0.950627,-113.923,209.116)">
                    <text x="600.239px" y="462.592px" style="font-family:'IndieFlower', 'Indie Flower';font-size:36px;fill:none;">i</text>
                </g>
                <g transform="matrix(0.896445,-0.443156,0.443156,0.896445,-141.491,316.474)">
                    <text x="606.416px" y="460.986px" style="font-family:'IndieFlower', 'Indie Flower';font-size:36px;fill:none;">o</text>
                </g>
                <g transform="matrix(0.845681,-0.533688,0.533688,0.845681,-145.348,401.371)">
                    <text x="621.366px" y="452.017px" style="font-family:'IndieFlower', 'Indie Flower';font-size:36px;fill:none;">n</text>
                </g>
                <g transform="matrix(0.912171,-0.409809,0.409809,0.912171,-125.905,299.377)">
                    <text x="635.495px" y="443.426px" style="font-family:'IndieFlower', 'Indie Flower';font-size:36px;fill:none;">s</text>
                </g>
                <g transform="matrix(0.931638,-0.363386,0.363386,0.931638,-111.106,271.078)">
                    <text x="664.925px" y="430.84px" style="font-family:'IndieFlower', 'Indie Flower';font-size:36px;fill:none;">f</text>
                </g>
                <g transform="matrix(0.933981,-0.357322,0.357322,0.933981,-107.444,270.242)">
                    <text x="677.612px" y="425.888px" style="font-family:'IndieFlower', 'Indie Flower';font-size:36px;fill:none;">o</text>
                </g>
                <g transform="matrix(0.934709,-0.355414,0.355414,0.934709,-103.831,274.052)">
                    <text x="693.991px" y="419.63px" style="font-family:'IndieFlower', 'Indie Flower';font-size:36px;fill:none;">r</text>
                </g>
                <g transform="matrix(0.932538,-0.361073,0.361073,0.932538,-99.7292,287.028)">
                    <text x="718.253px" y="410.4px" style="font-family:'IndieFlower', 'Indie Flower';font-size:36px;fill:none;">E</text>
                </g>
                <g transform="matrix(0.928061,-0.372428,0.372428,0.928061,-97.3635,303.09)">
                    <text x="735.867px" y="403.571px" style="font-family:'IndieFlower', 'Indie Flower';font-size:36px;fill:none;">v</text>
                </g>
                <g transform="matrix(0.921147,-0.389216,0.389216,0.921147,-96.0043,322.889)">
                    <text x="748.879px" y="398.381px" style="font-family:'IndieFlower', 'Indie Flower';font-size:36px;fill:none;">e</text>
                </g>
                <g transform="matrix(0.909586,-0.415515,0.415515,0.909586,-93.273,353.629)">
                    <text x="765.95px" y="391.142px" style="font-family:'IndieFlower', 'Indie Flower';font-size:36px;fill:none;">r</text>
                </g>
                <g transform="matrix(0.888857,-0.458185,0.458185,0.888857,-90.482,399.075)">
                    <text x="777.347px" y="386.042px" style="font-family:'IndieFlower', 'Indie Flower';font-size:36px;fill:none;">y</text>
                </g>
                <g transform="matrix(0.856561,-0.516046,0.516046,0.856561,-81.2869,463.387)">
                    <text x="792.912px" y="377.915px" style="font-family:'IndieFlower', 'Indie Flower';font-size:36px;fill:none;">o</text>
                </g>
                <g transform="matrix(0.903995,-0.427542,0.427542,0.903995,-80.077,380.821)">
                    <text x="807.926px" y="368.716px" style="font-family:'IndieFlower', 'Indie Flower';font-size:36px;fill:none;">n</text>
                </g>
                <g transform="matrix(0.933293,-0.359115,0.359115,0.933293,-74.9925,319.645)">
                    <text x="822.906px" y="361.683px" style="font-family:'IndieFlower', 'Indie Flower';font-size:36px;fill:none;">e</text>
                </g>
                <g transform="matrix(0.950596,-0.31043,0.31043,0.950596,-68.742,278.379)">
                    <text x="840.228px" y="355.16px" style="font-family:'IndieFlower', 'Indie Flower';font-size:36px;fill:none;">.</text>
                </g>
                <g transform="matrix(0.959637,-0.281243,0.281243,0.959637,-65.0421,252.523)">
                    <text x="847.24px" y="352.861px" style="font-family:'IndieFlower', 'Indie Flower';font-size:36px;fill:none;">.</text>
                </g>
                <g transform="matrix(0.967746,-0.251928,0.251928,0.967746,-60.819,226.533)">
                    <text x="854.285px" y="350.787px" style="font-family:'IndieFlower', 'Indie Flower';font-size:36px;fill:none;">.</text>
                </g>
                <g transform="matrix(0.99953,-0.0306447,0.0306447,0.99953,-7.2682,13.8787)">
                    <text x="449.148px" y="244.06px" style="font-family:'IndieFlower', 'Indie Flower';font-size:36px;stroke:black;stroke-width:1px;">H</text>
                </g>
                <g transform="matrix(0.987917,0.154985,-0.154985,0.987917,43.4123,-69.5999)">
                    <text x="468.067px" y="243.614px" style="font-family:'IndieFlower', 'Indie Flower';font-size:36px;stroke:black;stroke-width:1px;">a</text>
                </g>
                <g transform="matrix(0.950916,0.309449,-0.309449,0.950916,100.138,-138.311)">
                    <text x="486.059px" y="246.502px" style="font-family:'IndieFlower', 'Indie Flower';font-size:36px;stroke:black;stroke-width:1px;">n</text>
                </g>
                <g transform="matrix(0.883648,0.468151,-0.468151,0.883648,176.144,-205.713)">
                    <text x="501.925px" y="251.51px" style="font-family:'IndieFlower', 'Indie Flower';font-size:36px;stroke:black;stroke-width:1px;">d</text>
                </g>
                <g transform="matrix(0.755716,0.654899,-0.654899,0.755716,297.26,-276.034)">
                    <text x="518.639px" y="260.444px" style="font-family:'IndieFlower', 'Indie Flower';font-size:36px;stroke:black;stroke-width:1px;">c</text>
                </g>
                <g transform="matrix(0.55191,0.833904,-0.833904,0.55191,463.963,-321.13)">
                    <text x="530.796px" y="271.157px" style="font-family:'IndieFlower', 'Indie Flower';font-size:36px;stroke:black;stroke-width:1px;">r</text>
                </g>
                <g transform="matrix(0.197417,0.98032,-0.98032,0.197417,708.033,-301.855)">
                    <text x="538.368px" y="281.488px" style="font-family:'IndieFlower', 'Indie Flower';font-size:36px;stroke:black;stroke-width:1px;">a</text>
                </g>
                <g transform="matrix(-0.256912,0.966435,-0.966435,-0.256912,970.265,-146.716)">
                    <text x="541.537px" y="299.658px" style="font-family:'IndieFlower', 'Indie Flower';font-size:36px;stroke:black;stroke-width:1px;">f</text>
                </g>
                <g transform="matrix(-0.347828,0.937558,-0.937558,-0.347828,1018.16,-82.8623)">
                    <text x="537.9px" y="312.688px" style="font-family:'IndieFlower', 'Indie Flower';font-size:36px;stroke:black;stroke-width:1px;">t</text>
                </g>
                <g transform="matrix(-0.375433,0.926849,-0.926849,-0.375433,1034.28,-49.3769)">
                    <text x="533.778px" y="323.792px" style="font-family:'IndieFlower', 'Indie Flower';font-size:36px;stroke:black;stroke-width:1px;">e</text>
                </g>
                <g transform="matrix(-0.370264,0.928926,-0.928926,-0.370264,1038.53,-22.0709)">
                    <text x="526.748px" y="340.985px" style="font-family:'IndieFlower', 'Indie Flower';font-size:36px;stroke:black;stroke-width:1px;">d</text>
                </g>
                <g transform="matrix(-0.200208,0.979753,-0.979753,-0.200208,981.233,-58.8047)">
                    <text x="514.618px" y="371.097px" style="font-family:'IndieFlower', 'Indie Flower';font-size:36px;stroke:black;stroke-width:1px;">W</text>
                </g>
                <g transform="matrix(0.23364,0.972323,-0.972323,0.23364,776.21,-192.442)">
                    <text x="510.186px" y="396.189px" style="font-family:'IndieFlower', 'Indie Flower';font-size:36px;stroke:black;stroke-width:1px;">e</text>
                </g>
                <g transform="matrix(0.513362,0.858172,-0.858172,0.513362,606.034,-240.193)">
                    <text x="514.804px" y="414.266px" style="font-family:'IndieFlower', 'Indie Flower';font-size:36px;stroke:black;stroke-width:1px;">b</text>
                </g>
                <g transform="matrix(0.787115,0.616806,-0.616806,0.787115,384.762,-235.179)">
                    <text x="533.081px" y="439.809px" style="font-family:'IndieFlower', 'Indie Flower';font-size:36px;stroke:black;stroke-width:1px;">S</text>
                </g>
                <g transform="matrix(0.887008,0.461754,-0.461754,0.887008,271.717,-203.203)">
                    <text x="551.064px" y="453.6px" style="font-family:'IndieFlower', 'Indie Flower';font-size:36px;stroke:black;stroke-width:1px;">o</text>
                </g>
                <g transform="matrix(0.937662,0.347548,-0.347548,0.937662,195.664,-168.217)">
                    <text x="566.756px" y="461.328px" style="font-family:'IndieFlower', 'Indie Flower';font-size:36px;stroke:black;stroke-width:1px;">l</text>
                </g>
                <g transform="matrix(0.994516,0.104587,-0.104587,0.994516,51.6521,-57.1407)">
                    <text x="570.676px" y="463.944px" style="font-family:'IndieFlower', 'Indie Flower';font-size:36px;stroke:black;stroke-width:1px;">u</text>
                </g>
                <g transform="matrix(0.980157,-0.198225,0.198225,0.980157,-80.5144,125.924)">
                    <text x="588.697px" y="465.109px" style="font-family:'IndieFlower', 'Indie Flower';font-size:36px;stroke:black;stroke-width:1px;">t</text>
                </g>
                <g transform="matrix(0.950627,-0.310336,0.310336,0.950627,-113.923,209.116)">
                    <text x="600.239px" y="462.592px" style="font-family:'IndieFlower', 'Indie Flower';font-size:36px;stroke:black;stroke-width:1px;">i</text>
                </g>
                <g transform="matrix(0.896445,-0.443156,0.443156,0.896445,-141.491,316.474)">
                    <text x="606.416px" y="460.986px" style="font-family:'IndieFlower', 'Indie Flower';font-size:36px;stroke:black;stroke-width:1px;">o</text>
                </g>
                <g transform="matrix(0.845681,-0.533688,0.533688,0.845681,-145.348,401.371)">
                    <text x="621.366px" y="452.017px" style="font-family:'IndieFlower', 'Indie Flower';font-size:36px;stroke:black;stroke-width:1px;">n</text>
                </g>
                <g transform="matrix(0.912171,-0.409809,0.409809,0.912171,-125.905,299.377)">
                    <text x="635.495px" y="443.426px" style="font-family:'IndieFlower', 'Indie Flower';font-size:36px;stroke:black;stroke-width:1px;">s</text>
                </g>
                <g transform="matrix(0.931638,-0.363386,0.363386,0.931638,-111.106,271.078)">
                    <text x="664.925px" y="430.84px" style="font-family:'IndieFlower', 'Indie Flower';font-size:36px;stroke:black;stroke-width:1px;">f</text>
                </g>
                <g transform="matrix(0.933981,-0.357322,0.357322,0.933981,-107.444,270.242)">
                    <text x="677.612px" y="425.888px" style="font-family:'IndieFlower', 'Indie Flower';font-size:36px;stroke:black;stroke-width:1px;">o</text>
                </g>
                <g transform="matrix(0.934709,-0.355414,0.355414,0.934709,-103.831,274.052)">
                    <text x="693.991px" y="419.63px" style="font-family:'IndieFlower', 'Indie Flower';font-size:36px;stroke:black;stroke-width:1px;">r</text>
                </g>
                <g transform="matrix(0.932538,-0.361073,0.361073,0.932538,-99.7292,287.028)">
                    <text x="718.253px" y="410.4px" style="font-family:'IndieFlower', 'Indie Flower';font-size:36px;stroke:black;stroke-width:1px;">E</text>
                </g>
                <g transform="matrix(0.928061,-0.372428,0.372428,0.928061,-97.3635,303.09)">
                    <text x="735.867px" y="403.571px" style="font-family:'IndieFlower', 'Indie Flower';font-size:36px;stroke:black;stroke-width:1px;">v</text>
                </g>
                <g transform="matrix(0.921147,-0.389216,0.389216,0.921147,-96.0043,322.889)">
                    <text x="748.879px" y="398.381px" style="font-family:'IndieFlower', 'Indie Flower';font-size:36px;stroke:black;stroke-width:1px;">e</text>
                </g>
                <g transform="matrix(0.909586,-0.415515,0.415515,0.909586,-93.273,353.629)">
                    <text x="765.95px" y="391.142px" style="font-family:'IndieFlower', 'Indie Flower';font-size:36px;stroke:black;stroke-width:1px;">r</text>
                </g>
                <g transform="matrix(0.888857,-0.458185,0.458185,0.888857,-90.482,399.075)">
                    <text x="777.347px" y="386.042px" style="font-family:'IndieFlower', 'Indie Flower';font-size:36px;stroke:black;stroke-width:1px;">y</text>
                </g>
                <g transform="matrix(0.856561,-0.516046,0.516046,0.856561,-81.2869,463.387)">
                    <text x="792.912px" y="377.915px" style="font-family:'IndieFlower', 'Indie Flower';font-size:36px;stroke:black;stroke-width:1px;">o</text>
                </g>
                <g transform="matrix(0.903995,-0.427542,0.427542,0.903995,-80.077,380.821)">
                    <text x="807.926px" y="368.716px" style="font-family:'IndieFlower', 'Indie Flower';font-size:36px;stroke:black;stroke-width:1px;">n</text>
                </g>
                <g transform="matrix(0.933293,-0.359115,0.359115,0.933293,-74.9925,319.645)">
                    <text x="822.906px" y="361.683px" style="font-family:'IndieFlower', 'Indie Flower';font-size:36px;stroke:black;stroke-width:1px;">e</text>
                </g>
                <g transform="matrix(0.950596,-0.31043,0.31043,0.950596,-68.742,278.379)">
                    <text x="840.228px" y="355.16px" style="font-family:'IndieFlower', 'Indie Flower';font-size:36px;stroke:black;stroke-width:1px;">.</text>
                </g>
                <g transform="matrix(0.959637,-0.281243,0.281243,0.959637,-65.0421,252.523)">
                    <text x="847.24px" y="352.861px" style="font-family:'IndieFlower', 'Indie Flower';font-size:36px;stroke:black;stroke-width:1px;">.</text>
                </g>
                <g transform="matrix(0.967746,-0.251928,0.251928,0.967746,-60.819,226.533)">
                    <text x="854.285px" y="350.787px" style="font-family:'IndieFlower', 'Indie Flower';font-size:36px;stroke:black;stroke-width:1px;">.</text>
                </g>
            </g>
        </g>
    </g>
</svg>
