<?xml version="1.0" encoding="UTF-8" standalone="no"?>
<!DOCTYPE svg PUBLIC "-//W3C//DTD SVG 1.1//EN" "http://www.w3.org/Graphics/SVG/1.1/DTD/svg11.dtd">
<svg width="100%" height="100%" viewBox="0 0 552 423" version="1.1" xmlns="http://www.w3.org/2000/svg" xmlns:xlink="http://www.w3.org/1999/xlink" xml:space="preserve" style="fill-rule:evenodd;clip-rule:evenodd;stroke-linecap:round;stroke-linejoin:round;stroke-miterlimit:1.5;">
    <g id="Artboard1" transform="matrix(1,0,0,1,-700.791,-156.735)">
        <rect x="700.791" y="156.735" width="551.908" height="422.241" style="fill:none;"/>
        <clipPath id="_clip1">
            <rect x="700.791" y="156.735" width="551.908" height="422.241"/>
        </clipPath>
        <g clip-path="url(#_clip1)">
            <path d="M753.285,393.191C758.951,395.992 769.703,366.413 771.922,364.089C783.303,352.166 792.399,337.309 805.033,324.674C806.452,323.256 805.173,328.685 805.173,330.691C805.173,333.534 800.206,342.347 802.739,344.88C805.446,347.587 818.577,325.402 819.222,322.234C821.708,310.032 836.874,299.484 845.02,291.709C848.501,288.386 846.463,313.683 851.044,311.057C858.4,306.839 856.241,294.876 861.363,289.987C865.346,286.185 902.465,243.972 905.512,242.972C912.728,240.604 902.303,268.868 909.096,265.472C919.736,260.152 914.291,229.613 927.44,223.191C929.116,222.373 927.586,226.919 927.586,228.783C927.586,233.943 927.586,239.102 927.586,244.262C927.586,244.492 926.569,247.121 926.582,247.128C933.639,250.738 942.521,291.685 947.367,303.743C948.767,307.226 948.097,297.452 950.805,300.16C965.721,315.076 962.582,330.632 969.009,349.328C970.324,353.153 975.745,354.943 975.745,361.084C975.745,362.766 973.572,365.58 975.173,366.097C979.171,367.389 994.668,392.853 994.668,398.205" style="fill:none;stroke:rgb(212,12,12);stroke-width:1px;"/>
            <g transform="matrix(1,0,0,1,-11.7553,-8.45745)">
                <path d="M962.699,461.416C974.038,448.231 970.253,441.996 976.316,434.468C980.868,428.817 990.033,424.336 995.239,419.129C998.1,416.269 988.854,433.116 992.227,430.884C998.088,427.007 996.676,411.667 999.681,405.658C1005.91,393.206 1024.63,383.734 1032.94,372.114C1038.29,364.639 1034.4,357.472 1041.54,349.9C1052.35,338.43 1068.55,316.342 1082.25,309.335C1087.8,306.495 1091.93,316.896 1095.29,310.339C1097.53,305.948 1102,301.991 1105.18,298.158C1112.59,289.24 1121.39,282.722 1129.43,274.925C1132.01,272.425 1134.51,269.793 1136.86,266.908C1138.62,264.734 1142.73,260.891 1142.73,260.891C1142.73,260.891 1144.74,264.498 1144.74,266.476C1144.74,277.476 1150.01,294.008 1154.2,303.743C1154.97,305.525 1169.28,322.43 1166.67,323.098C1154.05,326.326 1164.87,348.353 1168.25,357.786C1168.88,359.558 1170.54,362.945 1170.54,362.945C1170.54,362.945 1171.99,366.722 1173.27,368.245C1177.53,373.336 1165.9,364.402 1166.24,364.235C1174.7,360.106 1180.75,398.245 1182.87,409.96C1184.02,416.373 1196.22,414.76 1197.49,419.993C1200.35,431.837 1211.52,473.025 1220.13,473.025" style="fill:none;stroke:rgb(212,12,12);stroke-width:1px;"/>
            </g>
            <path d="M1110.05,279.235C1110.05,279.856 1110.05,280.477 1110.05,281.097" style="fill:none;stroke:rgb(53,53,83);stroke-width:1px;"/>
            <path d="M1133.99,269.202C1143.57,279.873 1134.87,262.467 1129.12,262.467" style="fill:none;stroke:rgb(53,53,83);stroke-width:1px;"/>
            <path d="M1096.29,295.578C1098.16,296.973 1089.68,289.987 1095,289.987" style="fill:none;stroke:rgb(53,53,83);stroke-width:1px;"/>
            <path d="M1073.93,301.449C1070.56,304.492 1066.9,298.73 1067.63,298.73" style="fill:none;stroke:rgb(53,53,83);stroke-width:1px;"/>
            <path d="M1095.86,292.566C1096.59,288.651 1094.57,284.562 1094.57,279.953C1094.57,278.998 1094.57,273.12 1094.57,275.366" style="fill:none;stroke:rgb(53,53,83);stroke-width:1px;"/>
            <path d="M1082.82,324.528C1088.6,324.528 1094.39,324.924 1100.16,324.528C1100.65,324.494 1101.02,323.573 1101.02,324.388" style="fill:none;stroke:rgb(53,53,83);stroke-width:1px;"/>
            <path d="M1107.61,333.85C1113.34,326.778 1118.6,321.267 1123.1,314.069C1123.91,312.775 1127.05,310.385 1125.53,310.193C1121.23,309.646 1110.32,313.652 1113.92,316.07C1116.89,318.065 1132.53,304.887 1120.94,314.781C1120.81,314.893 1120.6,315.376 1120.66,315.213C1121.01,314.202 1130.3,303.473 1129.4,303.172C1126.95,302.351 1114.69,308.382 1115.64,309.335C1116.22,309.913 1124.62,297.784 1124.39,297.726C1120.57,296.778 1118.85,302.369 1122.52,300.16C1125.62,298.293 1114.5,311.093 1114.5,307.473C1114.5,305.819 1118.77,302.847 1119.94,301.742C1121.05,300.696 1124.17,297.364 1123.1,298.444C1119.93,301.633 1103.79,322.571 1109.62,315.931" style="fill:none;stroke:rgb(53,53,83);stroke-width:1px;"/>
            <path d="M1085.11,354.628C1080.52,361.022 1077.79,369.824 1070.78,373.411" style="fill:none;stroke:rgb(53,53,83);stroke-width:1px;"/>
            <path d="M1052.43,398.637C1049.42,401.026 1046.41,403.415 1043.4,405.805" style="fill:none;stroke:rgb(53,53,83);stroke-width:1px;"/>
            <path d="M1070.49,389.315C1082.83,379.408 1097.95,372.878 1088.41,385.878" style="fill:none;stroke:rgb(53,53,83);stroke-width:1px;"/>
            <g transform="matrix(1,0,0,1,19.9202,-10.4654)">
                <path d="M1030.36,425.585C1039.87,418.966 1047.83,412.274 1058.16,407.806C1059.3,407.317 1065.62,405.658 1065.05,405.658" style="fill:none;stroke:rgb(53,53,83);stroke-width:1px;"/>
            </g>
            <path d="M1090.56,427.879C1094.59,424.678 1100,421.119 1106.04,418.703" style="fill:none;stroke:rgb(53,53,83);stroke-width:1px;"/>
            <path d="M1076.8,443.644C1077,443.356 1085.62,426.432 1092.85,423.431C1094.45,422.768 1093.04,424.533 1092.71,424.867" style="fill:none;stroke:rgb(53,53,83);stroke-width:1px;"/>
            <path d="M1062.32,436.19C1064.76,428.678 1063.03,414.116 1070.92,414.116" style="fill:none;stroke:rgb(53,53,83);stroke-width:1px;"/>
            <path d="M1053.01,429.455C1051.33,426.636 1049.16,424.056 1047.99,420.997C1047.86,420.667 1050.55,418.132 1049.85,418.132" style="fill:none;stroke:rgb(53,53,83);stroke-width:1px;"/>
            <path d="M1069.06,399.641C1083.65,389.493 1088.42,389.726 1093.57,382.008C1095,379.87 1107.04,370.619 1107.04,371.689" style="fill:none;stroke:rgb(53,53,83);stroke-width:1px;"/>
            <path d="M1083.96,383.584C1096.23,373.332 1094.27,369.535 1103.46,369.535" style="fill:none;stroke:rgb(53,53,83);stroke-width:1px;"/>
            <path d="M1106.32,361.223C1102.98,361.653 1099.63,362.083 1096.29,362.513" style="fill:none;stroke:rgb(53,53,83);stroke-width:1px;"/>
            <path d="M1088.98,357.64C1098.09,348.875 1109.21,339.267 1098.44,345.745" style="fill:none;stroke:rgb(53,53,83);stroke-width:1px;"/>
            <path d="M1115.64,324.674C1121.1,317.319 1137.43,295.554 1130.55,301.596" style="fill:none;stroke:rgb(53,53,83);stroke-width:1px;"/>
            <path d="M1131.98,287.121C1135.81,282.153 1134.01,280.093 1138.72,280.093" style="fill:none;stroke:rgb(53,53,83);stroke-width:1px;"/>
            <path d="M1137.14,282.819C1131.07,288.839 1111.43,304.823 1119.08,301.024C1121.64,299.754 1127.54,293.434 1125.82,295.718C1122.51,300.117 1118.07,303.34 1114.07,307.041C1113.67,307.409 1112.54,307.808 1112.92,308.191C1113.17,308.446 1119.96,301.196 1120.52,301.742C1120.97,302.181 1111.15,309.382 1110.19,310.193C1103.33,316.036 1115.21,312.567 1115.21,312.347C1115.21,307.699 1100.27,313.469 1102.31,317.646C1103.29,319.637 1113.39,311.489 1111.06,311.489C1107.16,311.489 1103.83,314.688 1100.31,316.217C1099.58,316.531 1097.37,317.148 1098.16,317.221C1098.73,317.274 1099.32,317.36 1099.87,317.221C1101.57,316.796 1103.19,315.547 1104.61,314.641C1105.64,313.984 1120.22,302.325 1118.51,301.449C1115,299.653 1104.88,307.13 1106.9,303.743C1111.78,295.571 1108.32,307.532 1104.32,311.775" style="fill:none;stroke:rgb(53,53,83);stroke-width:1px;"/>
            <path d="M1081.82,321.523C1078.17,321.147 1081.57,323.826 1079.09,326.682C1076.18,330.042 1088.94,321.978 1085.4,324.528C1082.64,326.51 1078.32,331.248 1081.24,326.822" style="fill:none;stroke:rgb(53,53,83);stroke-width:1px;"/>
            <path d="M1055.87,353.484C1051.12,356.548 1045.99,358.711 1045.12,364.661" style="fill:none;stroke:rgb(53,53,83);stroke-width:1px;"/>
            <path d="M1022.76,396.915C1027.59,405.581 1027.29,407.094 1037.38,407.094" style="fill:none;stroke:rgb(53,53,83);stroke-width:1px;"/>
            <path d="M1030.21,420.711C1037.56,419.272 1044.83,417.241 1052.29,416.549" style="fill:none;stroke:rgb(53,53,83);stroke-width:1px;"/>
            <path d="M1043.26,420.279C1052.2,408.325 1050.32,407.67 1059.74,399.781C1061.57,398.251 1069.55,392.963 1062.61,395.053" style="fill:none;stroke:rgb(53,53,83);stroke-width:1px;"/>
            <path d="M1089.56,385.445C1106.11,375.42 1117.02,377.475 1111.34,396.343" style="fill:none;stroke:rgb(53,53,83);stroke-width:1px;"/>
            <path d="M1095.29,419.561C1091.18,425.725 1087.12,431.921 1082.96,438.052C1082.12,439.292 1079.17,441.922 1080.67,441.922" style="fill:none;stroke:rgb(53,53,83);stroke-width:1px;"/>
            <path d="M1109.48,452.527C1106.75,453.319 1098.94,456.85 1101.6,455.824C1108.34,453.222 1114.17,443.286 1118.23,437.62C1118.34,437.456 1123.68,429.036 1123.52,429.023C1115.72,428.357 1112.45,435.968 1106.18,442.068C1103.65,444.533 1101.66,447.343 1102.6,443.93" style="fill:none;stroke:rgb(53,53,83);stroke-width:1px;"/>
            <path d="M1102.45,424.867C1107.68,419.343 1120.56,401.148 1118.23,408.384C1116.5,413.716 1104.65,421.062 1100.16,424.435C1099.27,425.104 1097.38,427.268 1097.29,426.157C1096.78,419.116 1103.31,410.267 1106.47,404.222C1107.89,401.496 1113.8,396.57 1110.77,396.057C1107.78,395.55 1099.31,403.593 1096.29,405.226C1095.61,405.592 1093.56,406.621 1094.29,406.376C1098.61,404.929 1105.57,395.479 1109.48,395.479C1113.93,395.479 1102.12,405.489 1105.61,408.238C1108.97,410.883 1126.06,404.94 1127.11,408.956C1129.27,417.243 1121.23,436.983 1119.08,444.362C1117.59,449.505 1124.96,448.327 1122.38,452.673C1121.94,453.408 1116.13,461.031 1118.23,462.274C1132.37,470.659 1142.59,438.915 1142.59,433.039" style="fill:none;stroke:rgb(53,53,83);stroke-width:1px;"/>
            <path d="M1142.16,401.503C1142.01,397.906 1141.8,394.311 1141.7,390.713C1141.52,383.804 1146.88,364.158 1148.04,370.971C1149.63,380.329 1127.59,393.7 1125.11,403.65" style="fill:none;stroke:rgb(53,53,83);stroke-width:1px;"/>
            <path d="M1132.13,380C1133.15,371.599 1142.53,358.629 1134.99,354.774C1132.41,353.454 1123.79,357.698 1126.54,356.782C1129.22,355.889 1132.45,348.512 1133.85,346.177C1134.53,345.041 1136.84,342.956 1135.57,342.593C1133.32,341.953 1121.94,352.626 1126.97,352.626" style="fill:none;stroke:rgb(53,53,83);stroke-width:1px;"/>
            <path d="M1136.57,336.855C1141.15,325.925 1147.55,313.227 1144.31,325.106" style="fill:none;stroke:rgb(53,53,83);stroke-width:1px;"/>
            <path d="M1144.45,408.67C1140.46,422.061 1137.86,425.733 1137.86,436.19" style="fill:none;stroke:rgb(53,53,83);stroke-width:1px;"/>
            <g transform="matrix(1,0,0,1,-0.139628,-7.73936)">
                <path d="M1140.87,437.194C1160.63,437.057 1159.91,435.487 1174.56,431.316" style="fill:none;stroke:rgb(53,53,83);stroke-width:1px;"/>
            </g>
            <path d="M711.576,401.503C721.455,401.503 734.664,402.793 743.684,402.793" style="fill:none;stroke:rgb(212,12,12);stroke-width:1px;"/>
            <path d="M783.677,403.936C789.75,404.895 801.875,400.8 801.875,406.948" style="fill:none;stroke:rgb(212,12,12);stroke-width:1px;"/>
            <path d="M748.989,408.956C753.852,408.956 804.67,403.639 810.047,404.515C823.978,406.783 837.831,409.96 852.473,409.96" style="fill:none;stroke:rgb(212,12,12);stroke-width:1px;"/>
            <path d="M811.915,424.435C843.128,417.215 875.172,423.094 905.798,415.259" style="fill:none;stroke:rgb(212,12,12);stroke-width:1px;"/>
            <path d="M848.89,412.108C855.551,412.237 898.858,408.28 907.66,410.532C912.776,411.841 920.97,419.561 927.154,419.561" style="fill:none;stroke:rgb(212,12,12);stroke-width:1px;"/>
            <path d="M893.324,430.745C906.395,427.544 932.866,411.312 947.793,415.406C955.478,417.514 960.704,424.721 968.863,424.721" style="fill:none;stroke:rgb(212,12,12);stroke-width:1px;"/>
            <path d="M919.555,418.557C939.271,419.91 958.28,420.499 976.749,413.112C978.495,412.413 997.819,411.722 997.819,411.676" style="fill:none;stroke:rgb(212,12,12);stroke-width:1px;"/>
            <path d="M973.311,407.094C981.733,408.468 989.724,410.678 998.105,410.678" style="fill:none;stroke:rgb(212,12,12);stroke-width:1px;"/>
            <path d="M722.899,423.145C743.079,422.371 763.359,420.997 783.531,420.997" style="fill:none;stroke:rgb(212,12,12);stroke-width:1px;"/>
            <path d="M741.104,412.394C756.557,411.208 767.638,406.654 779.375,415.406" style="fill:none;stroke:rgb(212,12,12);stroke-width:1px;"/>
            <path d="M753.431,436.476C769.661,436.476 785.77,437.574 801.589,433.61C813.729,430.568 824.123,424.581 836.855,424.581C839.084,424.581 843.206,423.899 844.448,426.443" style="fill:none;stroke:rgb(212,12,12);stroke-width:1px;"/>
            <path d="M806.323,422.713C813.806,422.182 838.997,417.566 849.182,422.427" style="fill:none;stroke:rgb(212,12,12);stroke-width:1px;"/>
            <path d="M834.701,444.362C861.206,442.396 889.08,439.488 915.545,439.488" style="fill:none;stroke:rgb(212,12,12);stroke-width:1px;"/>
            <path d="M887.307,441.496C906.456,439.379 925.859,438.144 943.923,430.884" style="fill:none;stroke:rgb(212,12,12);stroke-width:1px;"/>
            <path d="M989.794,429.594C974.916,429.89 960.085,430.027 945.213,430.027C940.65,430.027 935.299,429.311 930.884,430.459C929.559,430.803 923.525,432.892 923.856,432.892" style="fill:none;stroke:rgb(212,12,12);stroke-width:1px;"/>
            <path d="M958.544,442.068C945.131,445.037 934.589,447.945 921.423,447.945C918.547,447.945 901.041,449.661 906.37,449.661" style="fill:none;stroke:rgb(212,12,12);stroke-width:1px;"/>
            <path d="M893.471,449.235C880.738,449.406 869.037,452.673 856.922,452.673C855.461,452.673 845.306,453.213 845.306,451.955" style="fill:none;stroke:rgb(212,12,12);stroke-width:1px;"/>
            <path d="M902.36,433.039C866.031,426.299 865.975,427.59 830.831,438.198C822.541,440.701 814.235,443.035 805.751,444.787C803.852,445.18 793.032,451.097 796.004,451.097" style="fill:none;stroke:rgb(212,12,12);stroke-width:1px;"/>
            <path d="M848.464,441.35C818.866,446.171 790.713,452.381 761.602,458.983C760.639,459.201 752.427,460.706 752.427,462.42" style="fill:none;stroke:rgb(212,12,12);stroke-width:1px;"/>
            <path d="M796.862,428.451C802.977,423.624 808.975,418.645 815.206,413.969C818.237,411.695 829.643,409.576 826.243,411.25C820.904,413.879 815.406,416.124 809.328,416.124C809.091,416.124 808.38,416.124 808.617,416.124C818.96,416.124 829.535,409.674 840.578,409.674" style="fill:none;stroke:rgb(212,12,12);stroke-width:1px;"/>
            <path d="M742.965,416.842C741.658,415.846 736.691,412.217 735.658,410.818C734.516,409.271 739.052,409 740.818,408.238C746.08,405.968 783.121,397.347 762.46,397.347" style="fill:none;stroke:rgb(212,12,12);stroke-width:1px;"/>
            <path d="M743.684,403.078C760.788,396.981 763.581,395.771 778.225,395.771C782.397,395.771 786.283,395.182 790.412,394.767C790.882,394.72 796.694,394.481 794.854,394.481" style="fill:none;stroke:rgb(212,12,12);stroke-width:1px;"/>
            <path d="M760.598,413.112C762.128,412.911 806.069,408.098 803.025,408.098" style="fill:none;stroke:rgb(212,12,12);stroke-width:1px;"/>
            <path d="M779.375,416.263C783.42,414.769 798.014,410.539 805.033,406.948" style="fill:none;stroke:rgb(212,12,12);stroke-width:1px;"/>
            <path d="M751.283,421.715C742.509,423.934 730.08,426.862 720.319,429.741C713.882,431.639 709.054,436.697 716.017,435.472" style="fill:none;stroke:rgb(212,12,12);stroke-width:1px;"/>
            <g transform="matrix(1,0,0,1,45.5851,-36.5492)">
                <path d="M798.437,426.582C816.245,418.017 834.393,410.1 854.628,410.1" style="fill:none;stroke:rgb(212,12,12);stroke-width:1px;"/>
            </g>
            <path d="M725.047,445.791C737.663,445.029 748.757,444.569 760.884,442.64" style="fill:none;stroke:rgb(212,12,12);stroke-width:1px;"/>
            <path d="M743.684,452.673C734.891,454.202 726.093,455.696 717.307,457.261C709.206,458.704 702.72,460.073 705.266,460.273C725.115,461.827 859.806,448.352 870.824,437.334" style="fill:none;stroke:rgb(212,12,12);stroke-width:1px;"/>
            <path d="M752.713,462.42C774.156,461.041 797.99,462.511 819.222,458.265C824.186,457.272 880.3,436.109 851.902,444.501" style="fill:none;stroke:rgb(212,12,12);stroke-width:1px;"/>
            <path d="M815.492,452.241C803.4,456.526 791.863,465.079 780.233,469.016" style="fill:none;stroke:rgb(212,12,12);stroke-width:1px;"/>
            <path d="M817.5,465.286C835.127,460.3 852.801,457.412 870.392,452.673C872.284,452.163 871.348,451.717 869.674,451.955" style="fill:none;stroke:rgb(212,12,12);stroke-width:1px;"/>
            <path d="M812.201,471.596C827.809,470.025 840.259,469.46 854.628,465C867.276,461.074 882.565,452.348 897.115,447.973C902.406,446.381 907.6,445.366 912.533,445.366" style="fill:none;stroke:rgb(212,12,12);stroke-width:1px;"/>
            <path d="M857.779,470.306C867.803,463.271 874.239,457.758 884.727,453.531C890.945,451.025 897.502,448.869 904.076,447.513C910.103,446.271 916.28,445.519 922.427,445.366C943.952,444.828 900.251,470.708 892.753,476.469C892.3,476.817 888.883,478.874 888.883,479.761C888.883,482.709 894.283,477.339 896.769,475.751C901.601,472.665 906.627,469.925 911.39,466.722C921.144,460.161 929.425,451.121 939.767,445.505C943.438,443.512 951.946,443.058 954.674,440.199" style="fill:none;stroke:rgb(212,12,12);stroke-width:1px;"/>
            <path d="M949.661,436.622C929.644,443.602 908.807,448.347 890.891,459.98C887.128,462.424 860.198,476.885 864.515,472.168" style="fill:none;stroke:rgb(212,12,12);stroke-width:1px;"/>
            <path d="M892.32,456.403C913.113,447.728 941.959,440.782 960.552,426.729" style="fill:none;stroke:rgb(212,12,12);stroke-width:1px;"/>
            <path d="M940.625,426.582C949.912,420.894 959.457,415.406 948.085,415.406" style="fill:none;stroke:rgb(212,12,12);stroke-width:1px;"/>
            <path d="M926.868,420.851C919.829,424.5 912.605,427.823 905.798,431.888" style="fill:none;stroke:rgb(212,12,12);stroke-width:1px;"/>
            <path d="M915.399,423.291C926.451,407.249 908.339,423.356 892.613,427.733" style="fill:none;stroke:rgb(212,12,12);stroke-width:1px;"/>
            <path d="M884.441,430.166C889.278,426.674 927.46,402.444 926.722,402.932" style="fill:none;stroke:rgb(212,12,12);stroke-width:1px;"/>
            <path d="M955.964,445.505C948.968,452.743 936.608,468.444 924.289,471.596" style="fill:none;stroke:rgb(212,12,12);stroke-width:1px;"/>
            <path d="M933.172,463.71C942.791,460.112 953.621,456.79 962.992,451.955C966.869,449.954 968.314,447.227 963.132,447.227" style="fill:none;stroke:rgb(212,12,12);stroke-width:1px;"/>
            <path d="M917.121,478.185C945.542,466.689 1040.56,427.136 972.021,449.947" style="fill:none;stroke:rgb(212,12,12);stroke-width:1px;"/>
            <path d="M908.092,485.352C931.599,473.15 959.394,459.531 984.634,451.097C994.036,447.956 1004.34,444.756 1013.16,440.199C1015.71,438.883 1017.88,437.19 1020.04,435.332C1021.4,434.163 1025.54,430.76 1024.05,431.749C1021.33,433.547 1018.81,435.616 1016.02,437.334C1007.5,442.593 998.929,447.96 990.08,452.673" style="fill:none;stroke:rgb(212,12,12);stroke-width:1px;"/>
            <path d="M966.144,470.731C979.707,462.472 992.849,454.37 1005.56,444.934C1005.88,444.693 1010.27,440.898 1010.86,441.203C1014.46,443.042 996.804,463 995.525,464.428" style="fill:none;stroke:rgb(212,12,12);stroke-width:1px;"/>
            <path d="M935.898,483.059C918.875,487.522 863.923,491.292 850.472,502.553" style="fill:none;stroke:rgb(212,12,12);stroke-width:1px;"/>
            <path d="M925.146,474.894C917.883,474.894 910.621,474.894 903.358,474.894C892.936,474.894 880.933,473.407 870.964,477.327C856.109,483.169 904.771,475.849 908.092,475.605C919.55,474.762 931.055,474.241 942.493,473.172C960.409,471.497 936.329,474.59 931.17,475.751" style="fill:none;stroke:rgb(212,12,12);stroke-width:1px;"/>
            <path d="M876.124,485.066C855.252,495.8 880.399,493.02 895.904,490.086C937.147,482.284 974.051,463.602 1012.73,448.371C1027.14,442.694 1003.9,458.018 1000.55,459.694" style="fill:none;stroke:rgb(212,12,12);stroke-width:1px;"/>
            <path d="M1014.59,462.42C1012.68,463.508 971.157,483.338 971.157,493.81" style="fill:none;stroke:rgb(212,12,12);stroke-width:1px;"/>
            <path d="M992.088,477.181C981.803,482.715 970.66,489.027 959.834,494.242C947.998,499.943 936.059,505.322 924.428,511.443C919.459,514.058 920.002,513.823 915.113,516.316C913.171,517.307 907.21,518.376 909.235,519.182C915.367,521.624 989.595,479.053 998.251,473.89C1008.54,467.756 1018.45,461 1028.78,454.967C1032.48,452.807 1036.29,450.623 1040.25,448.949C1040.65,448.778 1041.9,448.41 1041.54,448.657C1036.9,451.795 1032.75,455.875 1028.49,459.555" style="fill:none;stroke:rgb(212,12,12);stroke-width:1px;"/>
            <path d="M951.376,477.759C974.509,470.457 995.034,459.359 1017.46,450.525C1017.83,450.382 1025.21,447.378 1025.62,448.231C1026.1,449.199 996.961,470.645 996.961,477.759C996.961,477.901 996.838,478.115 996.961,478.185C1002.44,481.302 1018.09,472.221 1021.18,475.18C1023.92,477.789 1020.55,483.303 1025.91,480.193C1032.75,476.228 1039.76,472.605 1046.41,468.298C1047.96,467.295 1052.45,464.128 1051.14,465.432C1040.15,476.421 1022.22,489.41 1008.42,496.536C1008.23,496.636 1005.02,498.282 1004.42,497.68C1003.09,496.359 1007.39,492.554 1007.42,492.52C1020.64,479.3 1036.45,468.07 1050.71,455.971C1054.68,452.608 1058.62,449.272 1063.04,446.509C1064.2,445.784 1067.99,444.176 1066.76,444.787C1055.32,450.511 1045.04,460.558 1034.37,467.726C1028.9,471.401 1023.17,474.904 1018.03,479.049C1017.08,479.814 1014.5,481.231 1015.59,481.769C1016.92,482.424 1050.37,462.982 1054.01,460.984C1059.05,458.217 1064.05,455.705 1069.49,453.816C1070.98,453.3 1075.24,451.611 1074.08,452.673C1069.09,457.22 979.826,535.728 1015.31,503.125" style="fill:none;stroke:rgb(212,12,12);stroke-width:1px;"/>
            <path d="M1026.06,485.785C1037.78,479.242 1049.45,472.463 1061.6,466.722C1062.29,466.397 1079.73,458.531 1080.09,459.269C1080.29,459.677 1077.07,462.356 1076.66,462.706C1066.05,471.654 1054,477.73 1044.69,488.364C1044.15,488.987 1034.7,500.545 1038.24,500.545" style="fill:none;stroke:rgb(212,12,12);stroke-width:1px;"/>
            <path d="M1069.63,475.319C1055.57,488.33 1039.55,500.314 1027.63,515.452" style="fill:none;stroke:rgb(212,12,12);stroke-width:1px;"/>
            <path d="M914.827,520.326C938.863,502.226 968.262,500.408 996.243,489.508C996.607,489.366 1046.83,469.302 1036.09,469.302" style="fill:none;stroke:rgb(212,12,12);stroke-width:1px;"/>
            <path d="M969.727,515.598C996.671,503.395 1033.62,478.185 1065.05,478.185C1065.22,478.185 1056.86,484.393 1053.14,487.074C1038.73,497.487 1023.01,512.582 1024.05,513.158C1037.75,520.785 1095.06,458.028 1105.75,461.702C1108.76,462.735 1065.37,504.873 1052.29,517.32C1046.31,523.005 1040.78,529.129 1034.8,534.807C1033.3,536.236 1029.7,540.739 1029.93,538.677C1030.73,531.24 1078.3,489.395 1085.97,483.777C1097.04,475.676 1063.88,503.142 1060.03,506.137" style="fill:none;stroke:rgb(212,12,12);stroke-width:1px;"/>
            <path d="M1059.6,506.709C1066.47,501.007 1073.1,495.006 1080.24,489.654C1080.26,489.641 1083.05,487.328 1083.54,487.793C1085.05,489.238 1075.21,499.033 1074.21,500.12C1073.03,501.413 1069.56,505.273 1070.35,503.703C1075.22,494.024 1087.78,485.583 1096.15,479.189C1097.92,477.835 1111.62,468.438 1111.2,468.438" style="fill:none;stroke:rgb(212,12,12);stroke-width:1px;"/>
            <path d="M1028.35,496.822C1043.44,486 1042.38,485.017 1055.87,478.617C1062.93,475.27 1070.11,472.214 1077.23,469.016C1083.35,466.265 1089.29,463.122 1095.43,460.412C1122.32,448.55 1067.77,515.212 1090.27,496.39C1094.39,492.945 1098.39,489.413 1102.6,486.07" style="fill:none;stroke:rgb(212,12,12);stroke-width:1px;"/>
            <path d="M1121.52,476.184C1131.02,469.662 1142.09,463.924 1134.14,471.882" style="fill:none;stroke:rgb(212,12,12);stroke-width:1px;"/>
            <path d="M1125.11,481.343C1135.74,473.183 1137.84,470.921 1146.32,465.572C1152.74,461.519 1161.07,455.986 1168.96,455.539C1173.91,455.258 1152.91,471.381 1149.9,472.886" style="fill:none;stroke:rgb(212,12,12);stroke-width:1px;"/>
            <path d="M1055.3,326.822C1053.86,327.556 1052.87,327.721 1054.43,326.536C1056.37,325.073 1048.42,334.129 1050.14,332.414C1051.97,330.587 1045.2,339.466 1048.13,336.855" style="fill:none;stroke:rgb(53,53,83);stroke-width:1px;"/>
            <path d="M1050.28,334.707C1045.48,339.845 1029.25,348.024 1035.94,350.186C1039.32,351.277 1047.91,342.797 1045.41,345.313C1043.63,347.1 1027.74,361.37 1034.95,361.37" style="fill:none;stroke:rgb(53,53,83);stroke-width:1px;"/>
            <path d="M1078.95,515.313C1089.81,504.192 1098.7,494.47 1111.2,485.924C1115.87,482.726 1120.97,480.002 1126.1,477.613C1127.43,476.994 1130.27,474.717 1130.27,476.184C1130.27,481.094 1096.13,508.389 1090.84,512.872C1089.01,514.428 1084.34,515.445 1085.4,517.606C1085.75,518.324 1098.46,508.899 1126.25,487.074C1137.29,478.406 1140.32,476.41 1139.87,477.181C1137.2,481.679 1131.06,486.175 1127.39,489.94C1123.72,493.712 1119.91,497.37 1116.07,500.977C1103.46,512.833 1122.72,498.639 1126.68,494.96C1128.13,493.616 1149.3,476.493 1149.61,477.613C1150.49,480.693 1124.88,506.437 1121.81,512.447C1120.52,514.965 1126.43,509.17 1128.54,507.287C1132.5,503.763 1135.91,499.892 1139.43,495.964C1141.58,493.574 1148.11,486.516 1146.18,489.082C1142.52,493.949 1137.8,498.06 1134.14,502.985C1134.12,503.001 1130.01,509.277 1130.12,509.289C1138.15,510.069 1142.34,499.205 1150.9,491.516C1154.31,488.458 1164.33,481.628 1159.79,481.051C1154.82,480.417 1149.99,482.201 1145.03,482.201" style="fill:none;stroke:rgb(212,12,12);stroke-width:1px;"/>
            <path d="M1148.61,476.469C1164.1,470.697 1178.85,465.323 1194.62,460.844C1196.4,460.339 1221.42,454.674 1221.42,454.681C1221.04,456.94 1212.04,461.865 1210.39,463.138C1197.67,472.957 1186.13,484.631 1173.41,494.242C1171.04,496.035 1181.81,485.822 1179.71,487.932C1178,489.664 1162.54,505.997 1164.66,505.997" style="fill:none;stroke:rgb(212,12,12);stroke-width:1px;"/>
            <path d="M1174.27,496.822C1187.16,485.485 1201.59,470.554 1216.55,461.277C1217.13,460.918 1216.35,461.588 1215.98,461.848C1204.89,469.582 1195.07,478.964 1182.87,485.066" style="fill:none;stroke:rgb(212,12,12);stroke-width:1px;"/>
            <path d="M1067.48,523.624C1075.89,520.375 1084.31,517.144 1092.71,513.876C1100.25,510.941 1107.77,507.909 1115.21,504.707C1148.66,490.31 1064.4,516.262 1058.45,517.174C1030.38,521.481 1001.33,522.235 973.737,529.069" style="fill:none;stroke:rgb(212,12,12);stroke-width:1px;"/>
            <path d="M756.011,444.362C740.876,447.241 730.471,448.517 715.878,448.517C710.935,448.517 706.011,448.752 701.11,449.375C698.952,449.65 692.485,450.379 694.661,450.379C710.199,450.379 728.79,442.597 743.684,438.484C749.668,436.831 755.825,434.87 762.028,434.182C762.266,434.156 762.985,434.182 762.746,434.182C746.645,434.182 730.543,434.182 714.441,434.182C709.277,434.182 704.449,434.243 699.535,436.044C697.955,436.623 693.704,438.747 695.379,438.91C702.347,439.587 744.644,438.436 746.695,433.324C749.597,426.093 733.896,423.593 729.781,423.005C726.221,422.497 715.463,422.595 719.029,422.141C731.027,420.615 742.203,420.745 754.003,417.128C754.669,416.923 756.707,416.549 756.011,416.549C746.567,416.549 736.896,415.552 727.34,415.552C721.189,415.552 710.516,415.552 711.29,415.552C720.898,415.552 730.566,413.462 739.814,410.964C743.669,409.923 747.536,408.851 751.423,407.952C751.571,407.918 752.006,407.82 751.855,407.806C741.256,406.822 730.097,407.806 719.461,407.806C715.089,407.806 710.734,407.853 706.416,408.67C705.197,408.901 701.612,409.453 702.832,409.674C717.712,412.374 735.108,409.803 749.701,406.948C754.746,405.961 759.73,404.726 764.754,403.65C766.092,403.364 770.139,402.793 768.77,402.793C753.246,402.793 734.768,423.973 720.605,430.598C710.859,435.158 680.659,440.899 679.322,444.787C678.33,447.673 688.309,446.656 689.648,446.656C703.817,446.656 717.915,447.255 732.074,447.513C734.844,447.564 740.386,447.513 740.386,447.513C740.386,447.513 732.15,447.368 728.059,446.941C711.771,445.244 691.86,442.89 676.031,447.66C669.887,449.511 663.81,451.971 658.544,455.685C657.411,456.484 654.296,458.523 655.672,458.69C677.31,461.317 721.867,452.667 742.965,445.505C752.386,442.307 761.952,439.66 771.35,436.762C775.422,435.506 779.386,433.797 783.384,432.32C784.352,431.963 787.288,431.17 786.257,431.17C777.294,431.17 762.057,440.37 754.86,445.505C753.889,446.199 751.526,448.243 752.713,448.371C761.328,449.304 769.612,445.657 777.939,444.076C779.966,443.691 786.166,443.497 784.102,443.497C759.017,443.497 729.931,463.929 710.572,477.899" style="fill:none;stroke:rgb(212,12,12);stroke-width:1px;"/>
            <path d="M743.112,456.828C757.621,447.894 757.027,447.943 770.199,440.492C777.699,436.25 803.311,427.481 803.311,416.263C803.311,414.927 779.91,427.446 775.645,427.879C746.094,430.878 724.648,443.83 697.959,455.253C695.817,456.169 663.392,463.049 664.847,458.118C668.392,446.104 755.407,418.348 709.428,427.161C704.407,428.123 705.072,428.052 699.395,429.023C693.377,430.052 686.59,430.29 680.758,432.174C678.849,432.791 684.781,432.391 686.775,432.174C692.27,431.577 697.892,429.808 703.265,428.59C716.411,425.61 729.205,421.568 742.108,417.699C747.538,416.071 757.114,407.454 758.444,412.965C758.853,414.657 754.824,417.174 754.149,417.699C742.553,426.725 729.371,432.971 721.177,445.791C720.321,447.13 718.388,449.852 719.887,450.379C724.669,452.06 731.839,449.623 736.084,447.945C756.362,439.932 780.172,432.934 796.576,417.839C796.591,417.825 800.284,414.379 799.874,413.969C799.602,413.698 795.358,418.719 794.854,419.275C789.842,424.8 785.031,430.102 779.229,434.9C765.765,446.034 750.359,455.104 735.798,464.714C727.105,470.452 717.803,475.871 710.572,483.491C708.65,485.515 702.837,491.164 705.412,490.086C739.808,475.688 770.957,451.946 806.895,439.202C822.279,433.747 838.615,430.712 854.914,429.88C856.196,429.815 841.45,436.06 836.995,437.048" style="fill:none;stroke:rgb(212,12,12);stroke-width:1px;"/>
            <path d="M773.065,449.089C780.137,447.253 847.46,431.391 847.46,424.867" style="fill:none;stroke:rgb(212,12,12);stroke-width:1px;"/>
            <path d="M848.604,416.41C856.892,414.309 866.74,413.248 858.351,416.981" style="fill:none;stroke:rgb(212,12,12);stroke-width:1px;"/>
            <path d="M838.145,424.721C853.67,419.837 852.973,419.15 864.515,416.842C866.648,416.415 873.1,415.422 870.964,415.838C867.853,416.443 851.133,424.721 855.053,424.721" style="fill:none;stroke:rgb(212,12,12);stroke-width:1px;"/>
            <path d="M871.828,422.001C859.968,433.374 856.067,437.96 844.162,444.934C840.054,447.34 835.962,449.772 831.981,452.387C831.02,453.019 828.269,454.475 829.402,454.681C840.117,456.625 858.179,444.379 868.098,440.632C873.244,438.688 878.426,436.833 883.577,434.9C884.908,434.401 889.015,433.464 887.593,433.464C871.705,433.464 847.643,449.742 833.983,456.689C823.059,462.243 812.472,468.419 802.739,475.891C802.496,476.078 801.755,476.316 802.021,476.469C805.081,478.232 816.627,466.961 818.936,465.432C835.694,454.334 854.799,445.832 872.972,437.334C883.81,432.265 897.023,428.029 906.516,420.426C906.909,420.11 909.27,417.417 909.235,417.414C889.189,415.456 865.229,437.279 849.036,446.509C845.995,448.243 820.512,458.61 820.512,463.138C820.512,466.865 827.361,460.195 830.831,458.836C838.78,455.725 846.975,453.129 855.053,450.379C868.342,445.854 923.225,421.423 933.318,421.423C933.528,421.423 925.294,428.969 924.574,429.455C921.622,431.449 893.649,447.321 897.194,451.383C901.655,456.493 930.881,450.89 936.616,449.947C942.798,448.93 955.282,446.226 954.82,447.081C949.532,456.887 933.315,463.817 923.856,468.298C918.763,470.711 919.179,470.382 913.969,472.6C912.002,473.437 906.116,475.157 908.231,475.465C914.114,476.323 923.482,468.116 928.305,465.572C934.798,462.145 980.06,445.229 982.912,440.918" style="fill:none;stroke:rgb(212,12,12);stroke-width:1px;"/>
            <path d="M1004.27,428.305C997.484,432.128 990.7,435.951 983.916,439.774" style="fill:none;stroke:rgb(53,53,83);stroke-width:1px;"/>
            <path d="M784.535,387.453C789.02,385.798 789.533,386.103 791.988,384.441" style="fill:none;stroke:rgb(53,53,83);stroke-width:1px;"/>
            <path d="M786.828,372.693C790.321,373.202 800.013,374.218 800.013,367.387" style="fill:none;stroke:rgb(53,53,83);stroke-width:1px;"/>
            <path d="M816.07,349.9C822.366,343.353 827.44,338.245 833.271,332.414" style="fill:none;stroke:rgb(53,53,83);stroke-width:1px;"/>
            <path d="M824.096,339.435C829.209,334.705 834.358,330.014 839.435,325.246C840.719,324.04 841.626,319.984 842.872,321.23C843.373,321.731 838.78,325.811 838.285,326.25" style="fill:none;stroke:rgb(53,53,83);stroke-width:1px;"/>
            <path d="M839.289,342.593C836.172,349.433 836.69,350.934 832.693,354.488C831.194,355.821 825.997,357.825 827.965,358.211C831.752,358.955 840.936,352.574 837.281,351.336C835.633,350.779 823.949,360.026 823.949,359.362" style="fill:none;stroke:rgb(53,53,83);stroke-width:1px;"/>
            <path d="M854.914,366.243C870.381,354.369 881.57,346.786 878.278,352.34" style="fill:none;stroke:rgb(53,53,83);stroke-width:1px;"/>
            <path d="M859.355,367.101C865.731,360.287 873.059,353.24 878.85,345.598C879.442,344.817 883.551,340.585 880.858,340.585" style="fill:none;stroke:rgb(53,53,83);stroke-width:1px;"/>
            <path d="M863.511,375.844C865.757,375.29 869.178,374.453 872.825,373.523C882.897,370.953 894.701,367.673 888.311,367.673" style="fill:none;stroke:rgb(53,53,83);stroke-width:1px;"/>
            <path d="M910.811,345.459C907.897,352.052 905.185,358.739 902.068,365.239C901.41,366.612 898.96,369.731 898.63,368.245C897.142,361.532 918.398,343.941 922.427,338.291C926.243,332.94 914.999,337.611 914.973,337.427C914.62,334.903 923.329,323.922 924.003,324.814C925.227,326.434 905.152,347.913 909.096,349.9C912.36,351.545 924.428,330.763 924.428,327.54" style="fill:none;stroke:rgb(53,53,83);stroke-width:1px;"/>
            <path d="M924.428,317.36C930.975,324.479 934.754,278.497 934.754,300.02C934.754,303.387 934.739,302.746 935.326,305.612C936.132,309.55 936.112,308.966 936.902,312.487C937.671,315.918 938.338,319.287 938.338,322.813" style="fill:none;stroke:rgb(53,53,83);stroke-width:1px;"/>
            <path d="M946.217,328.112C955.539,342.637 956.524,342.314 960.406,352.912C960.892,354.24 962.992,359.064 962.992,354.92" style="fill:none;stroke:rgb(53,53,83);stroke-width:1px;"/>
            <g transform="matrix(3.62387,0,0,0.0825374,-2428.05,362.752)">
                <path d="M932.028,351.476C934.575,364.119 933.523,378.981 929.302,366.383" style="fill:none;stroke:rgb(53,53,83);stroke-width:0.39px;"/>
            </g>
            <path d="M927.44,361.795C934.164,376.362 935.513,376.228 937.62,385.731" style="fill:none;stroke:rgb(53,53,83);stroke-width:1px;"/>
            <path d="M869.674,345.459C874.277,338.875 879.153,332.473 883.437,325.678C883.47,325.627 885.92,321.679 885.16,321.376C883.182,320.589 880.752,322.43 879.136,323.238" style="fill:none;stroke:rgb(53,53,83);stroke-width:1px;"/>
            <path d="M873.976,325.246C880.311,318.398 884.803,308.987 893.185,304.894" style="fill:none;stroke:rgb(53,53,83);stroke-width:1px;"/>
            <path d="M902.646,272.214C902.693,267.196 902.838,262.179 902.786,257.161C902.757,254.351 899.261,261.566 897.194,263.471C896.611,264.008 899.994,272.25 894.907,278.517C894.111,279.498 891.814,281.505 893.039,281.815C894.933,282.294 902.214,280.679 902.214,278.378" style="fill:none;stroke:rgb(53,53,83);stroke-width:1px;"/>
            <path d="M911.243,283.251C915.257,277.325 919.378,271.469 923.285,265.472C924.246,263.997 925.007,255.677 925.007,257.733" style="fill:none;stroke:rgb(53,53,83);stroke-width:1px;"/>
            <path d="M906.802,312.201C918.221,316.508 907.52,319.949 907.52,326.968" style="fill:none;stroke:rgb(53,53,83);stroke-width:1px;"/>
            <path d="M909.235,328.976C908.196,332.934 909.31,333.3 906.656,335.279" style="fill:none;stroke:rgb(53,53,83);stroke-width:1px;"/>
            <path d="M888.311,349.328C886.687,350.762 885.062,352.196 883.437,353.63" style="fill:none;stroke:rgb(53,53,83);stroke-width:1px;"/>
            <path d="M903.79,327.394C907.412,320.039 920.878,304.461 912.68,304.461" style="fill:none;stroke:rgb(53,53,83);stroke-width:1px;"/>
            <path d="M815.066,363.949C827.05,350.994 833.998,345.811 827.68,349.614" style="fill:none;stroke:rgb(53,53,83);stroke-width:1px;"/>
            <path d="M794.422,351.476C794.698,352.485 794.971,358.072 792.134,358.072" style="fill:none;stroke:rgb(53,53,83);stroke-width:1px;"/>
            <path d="M801.449,371.975C810.052,368.84 822.943,370.022 826.961,361.795" style="fill:none;stroke:rgb(53,53,83);stroke-width:1px;"/>
            <path d="M844.448,321.23C840.323,319.457 827.1,316.795 829.827,315.213C830.973,314.548 823.236,322.38 823.238,322.38C825.365,323.468 831.471,319.257 833.843,318.65" style="fill:none;stroke:rgb(53,53,83);stroke-width:1px;"/>
            <path d="M835.991,345.313C839.839,342.774 854.084,331.4 862.653,328.544" style="fill:none;stroke:rgb(53,53,83);stroke-width:1px;"/>
            <path d="M864.089,321.23C866.261,314.709 875.663,297.183 870.392,301.596" style="fill:none;stroke:rgb(53,53,83);stroke-width:1px;"/>
            <path d="M867.812,302.886C874.262,296.866 880.653,290.784 887.161,284.827C888,284.059 890.155,282.412 890.319,283.537C890.752,286.505 882.977,290.091 885.731,291.277C889.756,293.009 900.724,282.587 897.626,285.685" style="fill:none;stroke:rgb(53,53,83);stroke-width:1px;"/>
            <path d="M817.36,383.584C828.148,378.547 849.754,368.537 849.754,368.537C849.754,368.537 845.221,370.049 843.019,370.971" style="fill:none;stroke:rgb(53,53,83);stroke-width:1px;"/>
            <path d="M819.076,378.278C825.708,375.06 845.705,365.664 838.856,368.391" style="fill:none;stroke:rgb(53,53,83);stroke-width:1px;"/>
            <path d="M893.039,417.839C898.155,411.638 908.524,407.388 908.524,399.348" style="fill:none;stroke:rgb(53,53,83);stroke-width:1px;"/>
            <path d="M882.866,401.789C880.275,402.856 879.829,401.365 881.862,399.641C884.331,397.546 886.895,395.598 889.455,393.617C890.128,393.096 890.785,392.556 891.463,392.041C891.891,391.716 894.292,389.461 895.047,389.461C897.586,389.461 891.469,393.136 889.315,394.481C887.727,395.473 894.583,392.613 892.181,392.613" style="fill:none;stroke:rgb(53,53,83);stroke-width:1px;"/>
            <path d="M875.126,398.351C868.108,394.357 876.702,392.932 876.702,385.306" style="fill:none;stroke:rgb(53,53,83);stroke-width:1px;"/>
            <path d="M850.898,408.524C850.31,396.59 848.605,395.826 857.347,387.739C857.476,387.62 861.776,383.425 861.935,383.584C864.205,385.854 854.195,392.525 854.195,389.315C854.195,388 863.649,382.602 864.947,381.722C866.493,380.673 869.674,376.842 869.674,378.71" style="fill:none;stroke:rgb(53,53,83);stroke-width:1px;"/>
            <path d="M838.285,396.057C843.635,390.656 861.944,379.86 854.342,379.86C851.461,379.86 846.782,382.926 844.016,384.016C842.228,384.72 836.952,386.672 838.431,385.445C841.676,382.754 844.989,379.836 848.464,377.42C851.757,375.131 845.534,385.056 848.318,382.726C850.991,380.488 855.015,378.573 857.347,376.13" style="fill:none;stroke:rgb(53,53,83);stroke-width:1px;"/>
            <path d="M866.809,386.024C870.569,384.469 906.5,361.884 896.051,379.282" style="fill:none;stroke:rgb(53,53,83);stroke-width:1px;"/>
            <path d="M892.467,385.878C898.936,383.117 910.347,380.757 916.549,374.555" style="fill:none;stroke:rgb(53,53,83);stroke-width:1px;"/>
            <path d="M909.668,395.479C915.605,390.927 928.876,376.388 928.876,383.87" style="fill:none;stroke:rgb(53,53,83);stroke-width:1px;"/>
            <path d="M953.531,372.407C957.187,374.58 962.918,383.311 964.282,379.282C965.262,376.385 963.33,367.651 961.988,370.399C960.506,373.434 968.275,380.615 970.153,382.58C971.468,383.956 975.537,387.647 973.737,387.028C970.726,385.993 955.611,361.483 963.564,378.71C964.114,379.903 965.14,381.475 965.14,382.866" style="fill:none;stroke:rgb(53,53,83);stroke-width:1px;"/>
            <path d="M949.082,354.774C949.41,357.983 956.315,376.702 948.371,382.008C946.898,382.992 946.122,382.977 945.931,381.29" style="fill:none;stroke:rgb(53,53,83);stroke-width:1px;"/>
            <path d="M900.066,318.225C886.787,318.737 873.002,324.528 860.219,324.528" style="fill:none;stroke:rgb(53,53,83);stroke-width:1px;"/>
            <path d="M858.497,331.556C857.651,329.806 856.875,328.019 855.958,326.305C850.858,316.772 849.031,333.856 841.729,330.12C837.383,327.896 846.297,317.032 838.57,321.662C836.971,322.621 837.493,322.286 835.565,323.384C832.809,324.954 836.326,319.978 836.709,319.082C837.585,317.031 832.572,314.163 837.427,310.053C838.519,309.129 840.146,306.722 840.146,309.195C840.146,312.411 841.275,311.391 843.305,309.621C843.534,309.421 844.198,308.805 844.016,309.049C835.683,320.246 836.68,322.191 829.541,325.392" style="fill:none;stroke:rgb(53,53,83);stroke-width:1px;"/>
            <path d="M788.404,363.231C786.441,361.268 801.177,348.12 804.601,342.593C805.167,341.679 805.751,339.581 805.751,339.581C805.751,339.581 805.434,340.479 805.173,340.871C800.837,347.367 794.635,352.505 790.266,359.076C790.089,359.342 789.84,360.253 789.84,359.934C789.84,358.021 794.144,351.967 791.702,353.63C787.976,356.169 784.131,359.344 781.097,362.66C780.013,363.845 776.957,367.516 778.225,366.529C783.863,362.14 787.988,353.857 791.988,348.039C793.782,345.429 801.766,341.148 801.303,341.729C794.063,350.821 791.842,361.321 785.678,370.539C784.468,372.348 772.145,387.352 774.355,388.457C775.656,389.108 788.319,373.338 789.548,375.412C790.958,377.792 783.354,389.03 785.392,390.033C788.822,391.722 798.756,376.943 800.585,374.701C802.001,372.964 807.01,370.253 804.887,369.535C803.137,368.942 795.381,378.039 797.001,380.432C800.677,385.862 806.331,358.569 808.757,364.661C810.076,367.975 802.879,374.46 802.879,378.57" style="fill:none;stroke:rgb(53,53,83);stroke-width:1px;"/>
            <path d="M825.672,344.741C834.062,335.934 843.389,330.335 839.289,341.729" style="fill:none;stroke:rgb(53,53,83);stroke-width:1px;"/>
            <path d="M852.473,362.227C889.092,351.842 891.098,331.321 907.52,298.73" style="fill:none;stroke:rgb(53,53,83);stroke-width:1px;"/>
            <path d="M907.52,298.73C912.824,293.522 918.175,288.361 923.431,283.105C924.051,282.485 925.577,280.621 924.721,280.811C919.652,281.935 914.011,289.308 914.109,289.269C917.583,287.885 919.71,282.809 922.999,280.811C924.843,279.691 919.987,284.384 919.987,286.543C919.987,290.983 920.851,295.712 920.851,300.452" style="fill:none;stroke:rgb(53,53,83);stroke-width:1px;"/>
            <path d="M899.488,315.499C886.008,314.046 874.482,327.988 869.674,341.011" style="fill:none;stroke:rgb(53,53,83);stroke-width:1px;"/>
            <path d="M864.515,359.501C874.554,350.7 883.787,344.25 880.426,357.207C880.389,357.346 879.726,361.192 880.14,361.37C887.013,364.328 891.799,350.618 898.63,350.618" style="fill:none;stroke:rgb(53,53,83);stroke-width:1px;"/>
            <path d="M907.234,363.371C895.287,374.081 894.952,372.982 888.311,381.004C886.958,382.639 883.024,385.709 885.013,386.449C887.302,387.301 891.084,382.226 892.467,380.864" style="fill:none;stroke:rgb(53,53,83);stroke-width:1px;"/>
            <path d="M1008.14,420.565C1001.64,416.448 1001.88,415.215 1006.56,409.674C1008.46,407.425 1013.76,400.449 1012.44,403.078C1010.89,406.158 1008.22,408.963 1006.28,411.822C1004,415.181 1016.28,407.68 1012.29,409.674" style="fill:none;stroke:rgb(53,53,83);stroke-width:1px;"/>
            <path d="M1009.29,434.9C1012.81,430.21 1021.66,418.388 1029.19,408.356C1038.4,396.083 1045.63,386.489 1038.67,395.911" style="fill:none;stroke:rgb(53,53,83);stroke-width:1px;"/>
            <path d="M1025.05,395.911C1029.94,391.252 1052.03,369.967 1050.57,369.967" style="fill:none;stroke:rgb(53,53,83);stroke-width:1px;"/>
            <path d="M1050.14,367.247C1045.04,357.357 1047.88,374.982 1043.54,379.282" style="fill:none;stroke:rgb(53,53,83);stroke-width:1px;"/>
            <path d="M1024.19,400.066C1033.03,391.401 1033.39,392.255 1040.39,382.008C1045.14,375.05 1053.9,362.716 1053.72,362.66C1053.32,362.53 1042.07,366.085 1044.98,362.513C1046.92,360.13 1052.51,353.139 1051.57,356.064C1050.88,358.193 1045.55,362.653 1047.27,361.223" style="fill:none;stroke:rgb(53,53,83);stroke-width:1px;"/>
            <path d="M1082.1,307.613C1083.88,310.591 1087.41,307.89 1087.41,305.033" style="fill:none;stroke:rgb(53,53,83);stroke-width:1px;"/>
            <path d="M1045.55,383.73C1047.58,383.142 1056.73,382.32 1056.73,377.281" style="fill:none;stroke:rgb(53,53,83);stroke-width:1px;"/>
            <path d="M1074.36,345.884C1068.95,346.7 1069.72,343.927 1072.79,339.867C1073.74,338.6 1069.67,340.719 1068.34,341.589C1066.51,342.794 1059.71,350.128 1059.02,349.468C1058.03,348.525 1061.63,346.679 1061.75,346.602C1067.37,342.99 1074.27,336.556 1080.38,334.993C1083.13,334.29 1089.38,329.116 1086.54,329.116C1080.66,329.116 1061.75,330.827 1060.31,342.161C1060.15,343.422 1062.58,342.733 1063.32,342.733C1072.6,342.733 1069.26,347.494 1063.32,354.92" style="fill:none;stroke:rgb(53,53,83);stroke-width:1px;"/>
            <path d="M1069.92,361.795C1065.93,364.535 1053.28,369.147 1058.02,370.113C1065.32,371.601 1078.07,357.407 1082.82,352.766C1086.03,349.626 1096.26,341.242 1092.13,343.019C1087.92,344.834 1084.13,349.228 1080.38,351.908C1079.31,352.674 1076.34,354.039 1077.51,354.628C1080.54,356.142 1091.43,341.017 1093.14,338.863C1095.2,336.269 1101.8,328.861 1099.87,331.556C1097.08,335.466 1092.06,338.714 1088.55,342.015C1075.74,354.066 1094.97,337.234 1097.44,332.414" style="fill:none;stroke:rgb(53,53,83);stroke-width:1px;"/>
            <path d="M858.211,301.31C861.952,286.625 859.645,283.762 866.237,276.37" style="fill:none;stroke:rgb(53,53,83);stroke-width:1px;"/>
            <path d="M882.434,290.844C885.073,289.587 890.385,286.632 887.453,288.265C885.934,289.11 891.256,276.229 882.866,281.383C882.032,281.895 882.084,281.409 881.576,281.961C881.187,282.384 873.491,290.619 875.126,291.277C877.809,292.355 880.438,291.171 878.418,293.996C876.985,295.998 887.005,286.376 886.303,286.257C879.009,285.013 874.122,299.448 868.531,299.448C868.399,299.448 873.488,292.005 873.976,291.416C877.445,287.231 883.28,282.591 885.731,277.799C887.687,273.976 872.447,284.587 876.27,286.543C876.877,286.853 889.169,275.945 889.169,274.362C889.169,273.155 887.118,275.64 886.157,276.37C882.399,279.221 877.431,282.156 874.548,285.971C869.818,292.229 865.316,298.713 860.645,304.894" style="fill:none;stroke:rgb(53,53,83);stroke-width:1px;"/>
            <g transform="matrix(0.610593,0,-0.0304132,1,693.492,147.137)">
                <text x="39.156px" y="98.756px" style="font-family:'Athelas-Italic', 'Athelas';font-style:italic;font-size:98.63px;">J<tspan x="69.534px 111.846px " y="98.756px 98.756px ">on</tspan> Kits<tspan x="330.904px 373.216px " y="98.756px 98.756px ">on</tspan></text>
            </g>
        </g>
    </g>
</svg>
